<?xml version="1.0" encoding="UTF-8" ?>
<!DOCTYPE svg PUBLIC "-//W3C//DTD SVG 1.1//EN" "http://www.w3.org/Graphics/SVG/1.1/DTD/svg11.dtd">
<svg width="200pt" height="200pt" viewBox="0 0 579 579" version="1.1" xmlns="http://www.w3.org/2000/svg">
<g id="#ffffffff">
<path fill="#ffffff" opacity="1.00" d=" M 0.00 0.00 L 579.00 0.00 L 579.00 579.00 L 0.00 579.00 L 0.00 0.00 M 193.31 14.49 C 193.31 19.43 193.31 24.37 193.30 29.30 C 188.36 29.31 183.41 29.30 178.46 29.32 C 178.43 24.38 178.44 19.45 178.45 14.51 C 163.60 14.49 148.75 14.49 133.90 14.52 C 133.85 24.40 133.89 34.29 133.87 44.17 C 138.84 44.20 143.81 44.20 148.77 44.17 C 148.75 39.21 148.75 34.26 148.77 29.31 C 153.72 29.32 158.68 29.31 163.63 29.32 C 163.61 34.28 163.63 39.23 163.60 44.18 C 158.65 44.18 153.69 44.18 148.74 44.19 C 148.75 49.06 148.74 53.93 148.76 58.80 C 143.80 58.82 138.84 58.80 133.87 58.83 C 133.88 78.63 133.87 98.44 133.88 118.24 C 138.84 118.26 143.80 118.25 148.76 118.25 C 148.75 113.28 148.74 108.32 148.78 103.36 C 153.42 103.04 158.34 104.14 162.81 102.82 C 164.72 98.54 163.12 93.24 163.62 88.56 C 158.67 88.56 153.73 88.55 148.78 88.57 C 148.74 83.61 148.76 78.66 148.75 73.71 C 153.71 73.68 158.68 73.70 163.64 73.68 C 163.62 63.85 163.63 54.02 163.63 44.19 C 168.56 44.19 173.49 44.19 178.42 44.18 C 178.44 49.06 178.43 53.94 178.43 58.82 C 183.39 58.82 188.35 58.81 193.31 58.83 C 193.31 53.95 193.32 49.07 193.31 44.19 C 198.25 44.19 203.19 44.20 208.13 44.17 C 208.13 39.22 208.12 34.26 208.13 29.31 C 213.03 29.32 217.93 29.31 222.83 29.31 C 222.81 24.37 222.82 19.43 222.82 14.49 C 212.98 14.51 203.14 14.50 193.31 14.49 M 311.68 14.52 C 311.69 19.45 311.68 24.38 311.69 29.31 C 316.64 29.32 321.59 29.31 326.54 29.32 C 326.58 24.38 326.56 19.44 326.57 14.50 C 321.60 14.51 316.64 14.49 311.68 14.52 M 356.25 14.49 C 356.24 19.43 356.25 24.37 356.24 29.30 C 361.20 29.32 366.16 29.32 371.12 29.30 C 371.13 24.37 371.14 19.44 371.09 14.51 C 366.14 14.50 361.19 14.50 356.25 14.49 M 459.83 14.49 C 459.79 49.07 459.82 83.65 459.81 118.24 C 494.40 118.26 528.99 118.27 563.58 118.23 C 563.54 83.65 563.58 49.07 563.56 14.49 C 528.98 14.51 494.40 14.50 459.83 14.49 M 15.51 14.51 C 15.50 49.09 15.50 83.67 15.51 118.25 C 50.08 118.25 84.66 118.26 119.24 118.24 C 119.26 83.66 119.25 49.08 119.25 14.51 C 84.67 14.50 50.09 14.50 15.51 14.51 M 252.50 14.50 C 252.49 19.44 252.50 24.38 252.49 29.31 C 247.54 29.31 242.58 29.30 237.63 29.31 C 237.78 53.59 237.29 77.97 237.87 102.18 C 241.78 104.92 247.78 102.66 252.50 103.37 C 252.49 108.32 252.49 113.27 252.51 118.22 C 247.55 118.26 242.59 118.24 237.63 118.25 C 237.78 132.54 237.30 146.91 237.85 161.16 C 241.46 164.44 247.81 161.80 252.50 162.62 C 252.92 167.30 251.57 172.41 253.19 176.81 C 257.64 178.30 262.69 177.04 267.38 177.45 C 267.37 187.34 267.36 197.23 267.38 207.12 C 272.32 207.13 277.25 207.13 282.19 207.12 C 282.18 209.98 282.17 212.84 282.17 215.70 C 264.10 215.67 246.03 215.72 227.96 215.67 C 224.13 215.46 220.38 217.09 217.89 219.99 C 217.62 220.81 217.08 222.44 216.82 223.26 C 216.16 219.20 219.89 216.68 222.75 214.61 C 222.81 212.12 222.83 209.63 222.85 207.14 C 217.94 207.11 213.03 207.12 208.12 207.12 C 208.12 212.01 208.12 216.90 208.12 221.79 C 203.18 221.82 198.24 221.81 193.30 221.82 C 193.31 226.75 193.30 231.69 193.32 236.63 C 188.36 236.62 183.40 236.62 178.44 236.62 C 178.43 241.57 178.43 246.53 178.44 251.48 C 173.50 251.50 168.57 251.50 163.63 251.49 C 163.64 231.76 163.60 212.03 163.65 192.30 C 173.54 192.33 183.42 192.31 193.31 192.31 C 193.32 182.42 193.31 172.53 193.32 162.64 C 188.65 162.98 183.68 161.84 179.19 163.19 C 177.43 167.53 178.89 172.74 178.44 177.43 C 168.54 177.44 158.65 177.42 148.75 177.44 C 148.75 182.39 148.74 187.34 148.76 192.30 C 143.81 192.31 138.86 192.30 133.92 192.31 C 133.84 197.24 133.89 202.18 133.85 207.11 C 128.99 207.12 124.12 207.14 119.26 207.08 C 119.25 202.16 119.24 197.24 119.27 192.32 C 114.30 192.30 109.34 192.30 104.38 192.32 C 104.86 187.66 103.35 182.47 105.16 178.16 C 109.52 176.49 114.60 177.87 119.24 177.45 C 119.25 182.40 119.24 187.35 119.25 192.31 C 124.13 192.32 129.01 192.31 133.89 192.33 C 133.88 177.47 133.88 162.61 133.88 147.75 C 129.04 148.00 124.04 147.17 119.30 148.19 C 119.10 152.99 119.31 157.80 119.24 162.61 C 114.60 162.16 109.46 163.63 105.14 161.86 C 103.37 157.54 104.84 152.41 104.39 147.76 C 109.37 147.75 114.35 147.73 119.33 147.78 C 119.19 142.82 119.27 137.85 119.24 132.88 C 114.29 132.87 109.33 132.87 104.38 132.88 C 104.36 137.84 104.37 142.79 104.37 147.75 C 94.48 147.75 84.59 147.74 74.70 147.76 C 74.69 142.80 74.70 137.84 74.68 132.88 C 69.73 132.87 64.78 132.87 59.83 132.87 C 59.79 142.79 59.82 152.71 59.81 162.63 C 54.94 162.61 50.06 162.62 45.19 162.63 C 45.19 157.67 45.19 152.72 45.19 147.76 C 40.23 147.74 35.26 147.74 30.30 147.76 C 29.95 157.40 31.03 167.31 29.78 176.78 C 25.33 178.32 20.21 177.03 15.50 177.42 C 15.50 197.16 15.50 216.89 15.49 236.63 C 20.44 236.63 25.38 236.65 30.33 236.60 C 30.30 226.78 30.33 216.95 30.31 207.13 C 35.27 207.12 40.22 207.13 45.18 207.13 C 45.18 221.91 45.18 236.70 45.18 251.49 C 40.22 251.50 35.27 251.50 30.31 251.49 C 30.38 261.20 30.17 270.93 30.38 280.63 C 39.88 281.95 50.06 280.81 59.82 281.19 C 59.82 276.26 59.82 271.33 59.82 266.41 C 64.77 266.36 69.72 266.39 74.68 266.37 C 74.70 276.20 74.68 286.04 74.69 295.87 C 64.86 295.88 55.03 295.87 45.20 295.87 C 45.17 300.81 45.18 305.75 45.17 310.69 C 40.22 310.68 35.27 310.68 30.32 310.69 C 30.81 315.34 29.21 320.61 31.14 324.86 C 35.50 326.49 40.53 325.16 45.16 325.55 C 45.19 330.52 45.19 335.48 45.16 340.45 C 40.53 340.84 35.50 339.51 31.14 341.14 C 29.21 345.37 30.81 350.61 30.32 355.25 C 35.27 355.25 40.23 355.25 45.18 355.25 C 45.18 360.21 45.17 365.16 45.20 370.13 C 50.08 370.12 54.95 370.12 59.82 370.14 C 59.80 375.00 59.81 379.87 59.81 384.74 C 64.77 384.76 69.73 384.75 74.69 384.77 C 74.68 394.66 74.69 404.54 74.69 414.43 C 79.39 413.22 90.14 417.87 89.61 410.02 C 89.84 401.65 88.97 393.09 89.98 384.84 C 99.73 384.61 109.49 384.82 119.25 384.76 C 119.25 379.88 119.25 375.00 119.27 370.12 C 114.31 370.12 109.35 370.12 104.39 370.11 C 104.37 365.16 104.38 360.20 104.37 355.26 C 109.17 355.31 113.97 355.10 118.76 355.31 C 119.88 360.07 118.95 365.19 119.25 370.09 C 134.04 370.18 148.83 370.10 163.63 370.13 C 163.62 375.00 163.62 379.87 163.63 384.75 C 168.56 384.76 173.50 384.76 178.44 384.75 C 178.44 374.92 178.44 365.08 178.44 355.25 C 173.50 355.23 168.57 355.25 163.63 355.24 C 163.67 346.00 163.57 336.76 163.64 327.52 C 163.76 326.02 165.40 325.28 166.74 325.54 C 175.60 325.56 184.46 325.60 193.32 325.54 C 193.31 320.59 193.32 315.64 193.31 310.69 C 188.35 310.68 183.39 310.68 178.44 310.69 C 178.44 305.75 178.45 300.82 178.42 295.89 C 173.49 295.86 168.56 295.87 163.63 295.88 C 163.63 290.98 163.62 286.09 163.63 281.19 C 168.57 281.19 173.50 281.19 178.44 281.19 C 178.44 276.25 178.45 271.32 178.43 266.39 C 183.39 266.38 188.36 266.37 193.32 266.38 C 193.30 271.31 193.31 276.25 193.30 281.18 C 198.24 281.19 203.18 281.18 208.12 281.21 C 208.13 310.85 208.09 340.48 208.14 370.12 C 213.02 370.13 217.90 370.12 222.78 370.13 C 222.81 367.32 222.82 364.52 222.85 361.73 C 219.76 360.22 216.76 357.79 216.47 354.13 C 219.40 363.48 230.11 361.28 237.62 361.37 C 237.62 364.28 237.62 367.20 237.64 370.11 C 242.59 370.13 247.54 370.13 252.49 370.11 C 252.49 374.99 252.50 379.87 252.49 384.75 C 237.70 384.74 222.91 384.75 208.11 384.75 C 208.11 389.71 208.17 394.67 208.03 399.63 C 193.23 399.61 178.43 399.62 163.63 399.63 C 164.00 404.31 162.80 409.32 164.21 413.79 C 168.65 415.31 173.73 414.04 178.43 414.44 C 178.43 419.39 178.43 424.35 178.44 429.31 C 188.31 429.32 198.19 429.31 208.07 429.32 C 208.14 434.27 208.12 439.23 208.12 444.19 C 213.02 444.18 217.92 444.20 222.83 444.16 C 223.15 439.28 222.09 434.02 223.36 429.38 C 228.11 429.15 232.87 429.38 237.63 429.33 C 237.63 424.36 237.63 419.39 237.62 414.42 C 232.69 414.44 227.76 414.44 222.83 414.43 C 222.80 419.40 222.80 424.38 222.83 429.36 C 217.93 429.27 213.02 429.30 208.12 429.34 C 208.13 419.42 208.14 409.51 208.11 399.60 C 222.91 399.67 237.71 399.61 252.51 399.63 C 252.50 394.67 252.50 389.71 252.51 384.76 C 257.46 384.75 262.42 384.76 267.37 384.75 C 267.38 376.96 267.38 369.17 267.37 361.37 C 277.21 361.38 287.04 361.38 296.87 361.37 C 296.89 369.16 296.83 376.95 296.91 384.75 C 306.80 384.78 316.68 384.72 326.57 384.78 C 326.55 389.72 326.55 394.67 326.57 399.61 C 321.61 399.62 316.64 399.61 311.68 399.64 C 311.68 404.56 311.69 409.49 311.68 414.42 C 316.64 414.45 321.59 414.43 326.55 414.45 C 326.55 434.20 326.58 453.95 326.54 473.71 C 316.65 473.66 306.77 473.68 296.88 473.70 C 296.87 478.63 296.87 483.56 296.89 488.49 C 291.98 488.49 287.08 488.50 282.18 488.48 C 282.20 478.60 282.19 468.71 282.19 458.82 C 287.08 458.82 291.97 458.81 296.87 458.83 C 296.89 453.95 296.88 449.08 296.88 444.21 C 301.82 444.18 306.76 444.19 311.70 444.18 C 311.69 439.22 311.69 434.26 311.69 429.31 C 301.86 429.31 292.02 429.31 282.18 429.31 C 282.19 424.35 282.19 419.39 282.19 414.44 C 287.09 414.44 291.99 414.44 296.89 414.44 C 296.87 404.54 296.88 394.63 296.88 384.73 C 287.05 384.77 277.22 384.73 267.39 384.75 C 267.33 399.61 267.40 414.46 267.36 429.31 C 257.45 429.30 247.54 429.31 237.64 429.31 C 237.61 434.26 237.64 439.22 237.60 444.18 C 232.66 444.18 227.73 444.18 222.79 444.18 C 222.82 449.06 222.79 453.94 222.84 458.83 C 227.77 458.81 232.70 458.82 237.63 458.82 C 237.63 453.94 237.63 449.06 237.63 444.19 C 247.54 444.18 257.45 444.20 267.36 444.18 C 267.38 463.91 267.37 483.64 267.37 503.37 C 262.42 503.37 257.47 503.36 252.52 503.38 C 252.49 498.42 252.50 493.46 252.51 488.51 C 247.55 488.49 242.59 488.50 237.63 488.49 C 237.62 483.55 237.65 478.61 237.60 473.67 C 232.77 473.30 227.46 474.47 222.92 473.16 C 222.63 468.37 222.89 463.58 222.83 458.79 C 217.92 458.82 213.02 458.81 208.12 458.81 C 208.12 463.77 208.15 468.72 208.06 473.68 C 203.15 473.68 198.23 473.68 193.31 473.69 C 193.31 468.73 193.32 463.78 193.31 458.82 C 188.35 458.80 183.39 458.81 178.44 458.82 C 178.43 468.71 178.44 478.60 178.43 488.49 C 173.50 488.50 168.57 488.50 163.63 488.49 C 163.62 483.55 163.65 478.61 163.60 473.67 C 158.65 473.69 153.69 473.67 148.74 473.70 C 148.75 483.59 148.75 493.48 148.75 503.37 C 143.79 503.37 138.84 503.36 133.88 503.38 C 133.87 508.33 133.87 513.29 133.88 518.24 C 138.84 518.26 143.80 518.24 148.76 518.27 C 148.75 513.31 148.75 508.35 148.76 503.40 C 153.71 503.36 158.67 503.38 163.62 503.38 C 163.62 508.33 163.64 513.28 163.60 518.24 C 158.66 518.24 153.72 518.25 148.79 518.23 C 148.70 528.08 148.77 537.92 148.75 547.76 C 153.71 547.75 158.67 547.74 163.63 547.78 C 163.61 552.70 163.62 557.63 163.63 562.56 C 168.56 562.56 173.50 562.56 178.44 562.56 C 178.44 552.67 178.46 542.78 178.42 532.89 C 173.49 532.86 168.56 532.87 163.63 532.88 C 163.63 528.00 163.62 523.13 163.63 518.25 C 173.52 518.25 183.41 518.25 193.30 518.26 C 193.31 523.13 193.31 528.00 193.30 532.88 C 198.24 532.88 203.18 532.89 208.12 532.86 C 208.12 527.99 208.15 523.12 208.09 518.25 C 203.17 518.24 198.25 518.23 193.33 518.26 C 193.31 513.29 193.31 508.33 193.32 503.36 C 198.23 503.38 203.13 503.38 208.04 503.37 C 208.17 508.33 208.11 513.30 208.11 518.27 C 213.02 518.25 217.92 518.25 222.82 518.25 C 222.81 513.30 222.82 508.35 222.82 503.40 C 227.75 503.36 232.69 503.38 237.62 503.38 C 237.61 523.10 237.63 542.82 237.61 562.54 C 257.37 562.59 277.12 562.54 296.88 562.57 C 296.88 557.63 296.88 552.69 296.88 547.75 C 291.99 547.75 287.09 547.74 282.20 547.76 C 282.18 542.79 282.20 537.83 282.17 532.87 C 277.24 532.87 272.31 532.87 267.38 532.88 C 267.36 537.83 267.36 542.79 267.38 547.75 C 262.42 547.75 257.46 547.75 252.50 547.75 C 252.51 542.80 252.50 537.86 252.51 532.92 C 257.46 532.86 262.42 532.88 267.37 532.88 C 267.38 528.00 267.38 523.13 267.37 518.25 C 282.14 518.26 296.91 518.23 311.68 518.27 C 311.70 513.31 311.69 508.35 311.70 503.39 C 316.35 503.85 321.53 502.35 325.84 504.16 C 327.51 508.51 326.12 513.59 326.55 518.24 C 321.59 518.24 316.64 518.24 311.69 518.25 C 311.67 533.01 311.70 547.78 311.67 562.54 C 316.64 562.58 321.60 562.56 326.57 562.57 C 326.56 547.79 326.56 533.02 326.57 518.25 C 331.52 518.25 336.47 518.26 341.42 518.24 C 341.45 528.08 341.43 537.91 341.43 547.75 C 346.37 547.76 351.31 547.75 356.25 547.76 C 356.26 532.97 356.25 518.17 356.25 503.37 C 361.20 503.38 366.15 503.37 371.11 503.39 C 371.12 508.34 371.12 513.29 371.12 518.25 C 380.95 518.25 390.78 518.26 400.61 518.24 C 400.17 513.60 401.64 508.45 399.86 504.14 C 395.54 502.37 390.40 503.82 385.75 503.36 C 385.76 498.40 385.74 493.44 385.78 488.49 C 390.42 488.11 395.44 489.39 399.83 487.84 C 401.68 483.55 400.14 478.34 400.62 473.69 C 395.67 473.68 390.72 473.68 385.77 473.69 C 385.75 468.73 385.75 463.77 385.77 458.82 C 395.66 458.82 405.54 458.82 415.43 458.82 C 415.43 463.77 415.43 468.73 415.43 473.69 C 420.39 473.69 425.34 473.69 430.30 473.70 C 430.31 488.54 430.31 503.39 430.30 518.24 C 445.10 518.26 459.90 518.26 474.70 518.24 C 474.68 513.29 474.70 508.35 474.68 503.41 C 479.62 503.36 484.56 503.38 489.50 503.38 C 489.49 508.33 489.49 513.29 489.50 518.25 C 494.46 518.25 499.41 518.25 504.37 518.25 C 504.37 523.13 504.37 528.00 504.37 532.88 C 514.09 532.67 523.87 533.32 533.56 532.56 C 534.26 527.83 533.74 523.01 533.87 518.24 C 524.05 518.24 514.22 518.24 504.40 518.24 C 504.36 513.28 504.38 508.33 504.38 503.38 C 509.33 503.38 514.29 503.38 519.25 503.37 C 519.25 498.41 519.25 493.46 519.25 488.50 C 514.29 488.49 509.33 488.49 504.38 488.50 C 504.38 483.56 504.36 478.62 504.41 473.68 C 509.35 473.70 514.31 473.68 519.26 473.70 C 519.24 468.74 519.26 463.77 519.24 458.81 C 514.28 458.81 509.33 458.81 504.37 458.81 C 504.37 448.97 504.40 439.14 504.36 429.31 C 494.47 429.30 484.58 429.31 474.70 429.30 C 474.69 414.45 474.69 399.60 474.70 384.75 C 479.63 384.75 484.56 384.76 489.50 384.75 C 489.50 379.87 489.51 374.99 489.50 370.11 C 479.60 370.12 469.71 370.12 459.81 370.12 C 459.81 375.00 459.81 379.88 459.80 384.76 C 454.93 384.74 450.06 384.75 445.19 384.74 C 445.18 394.63 445.18 404.53 445.18 414.43 C 430.33 414.43 415.48 414.45 400.63 414.42 C 401.01 409.73 399.81 404.69 401.22 400.22 C 405.70 398.82 410.74 400.00 415.44 399.64 C 415.30 394.70 415.78 389.72 415.18 384.81 C 410.33 384.61 405.48 384.80 400.63 384.75 C 400.63 374.91 400.63 365.08 400.63 355.25 C 395.68 355.24 390.72 355.25 385.77 355.23 C 385.75 350.30 385.75 345.37 385.77 340.44 C 380.88 340.43 375.99 340.43 371.11 340.44 C 370.20 346.72 372.98 352.90 371.19 359.04 C 370.38 366.33 363.26 371.37 356.21 371.57 C 356.27 375.96 356.24 380.36 356.24 384.76 C 351.30 384.74 346.37 384.75 341.44 384.75 C 341.44 381.08 341.44 377.42 341.44 373.76 C 338.09 373.90 334.14 374.23 333.34 370.08 C 331.09 370.11 328.83 370.11 326.59 370.11 C 326.57 367.20 326.56 364.28 326.57 361.37 C 330.02 361.38 333.48 361.47 336.93 361.35 C 336.36 356.93 331.33 354.56 331.41 349.98 C 331.35 347.06 330.90 343.92 332.11 341.18 C 337.88 327.11 361.29 326.92 367.72 340.49 C 368.57 340.47 370.28 340.43 371.13 340.41 C 371.12 335.46 371.13 330.52 371.11 325.58 C 368.20 325.56 365.29 325.56 362.38 325.57 C 362.38 320.61 362.36 315.64 362.40 310.68 C 365.31 310.69 368.21 310.69 371.12 310.68 C 371.12 305.75 371.13 300.81 371.12 295.88 C 368.20 295.87 365.28 295.87 362.36 295.87 C 362.36 290.98 362.37 286.08 362.36 281.19 C 365.28 281.19 368.20 281.18 371.13 281.17 C 371.13 276.24 371.13 271.31 371.12 266.38 C 368.20 266.37 365.29 266.37 362.39 266.38 C 362.34 256.46 362.37 246.54 362.38 236.62 C 365.29 236.63 368.20 236.63 371.12 236.62 C 371.13 231.68 371.12 226.75 371.12 221.82 C 376.00 221.82 380.88 221.82 385.77 221.81 C 385.75 216.91 385.76 212.02 385.74 207.12 C 390.69 207.13 395.65 207.12 400.61 207.13 C 400.64 202.19 400.63 197.26 400.62 192.33 C 405.56 192.31 410.49 192.32 415.43 192.31 C 414.22 187.61 418.87 176.86 411.02 177.39 C 397.72 177.48 384.42 177.40 371.11 177.44 C 371.12 182.41 371.12 187.37 371.11 192.34 C 375.99 192.31 380.86 192.32 385.74 192.30 C 385.75 197.23 385.75 202.16 385.74 207.08 C 380.87 207.14 376.01 207.12 371.15 207.11 C 371.11 202.18 371.15 197.24 371.08 192.31 C 366.14 192.31 361.20 192.31 356.26 192.30 C 356.24 182.41 356.26 172.52 356.25 162.63 C 351.31 162.62 346.37 162.62 341.43 162.61 C 341.45 157.66 341.44 152.71 341.44 147.75 C 326.60 147.74 311.76 147.76 296.93 147.74 C 296.95 142.88 296.60 137.99 297.16 133.16 C 306.94 132.52 316.77 133.06 326.57 132.88 C 326.56 123.05 326.56 113.22 326.57 103.38 C 331.52 103.37 336.47 103.37 341.43 103.38 C 341.43 108.33 341.44 113.28 341.42 118.23 C 346.36 118.26 351.30 118.26 356.24 118.24 C 356.25 98.43 356.27 78.62 356.23 58.81 C 351.30 58.81 346.37 58.80 341.44 58.83 C 341.42 68.74 341.44 78.64 341.43 88.55 C 336.47 88.56 331.52 88.56 326.57 88.55 C 326.56 83.59 326.58 78.63 326.54 73.68 C 321.59 73.69 316.64 73.70 311.69 73.67 C 311.70 68.73 311.69 63.79 311.69 58.86 C 306.85 58.90 301.96 58.47 297.15 59.13 C 296.59 63.96 296.94 68.84 296.93 73.69 C 301.85 73.69 306.77 73.69 311.69 73.69 C 311.68 78.65 311.68 83.61 311.69 88.56 C 306.82 88.74 301.88 88.17 297.06 88.86 C 296.61 93.68 296.99 98.56 296.89 103.40 C 291.99 103.35 287.08 103.38 282.18 103.37 C 282.18 108.33 282.18 113.29 282.18 118.25 C 287.08 118.25 291.98 118.25 296.89 118.26 C 296.95 113.47 296.70 108.66 296.98 103.87 C 301.58 102.65 306.83 103.73 311.68 103.37 C 311.69 108.32 311.68 113.28 311.69 118.23 C 306.76 118.25 301.83 118.24 296.90 118.25 C 296.71 123.02 297.26 127.83 296.56 132.56 C 291.81 133.25 286.98 132.73 282.20 132.87 C 282.17 137.83 282.18 142.80 282.19 147.77 C 287.09 147.75 291.98 147.76 296.88 147.73 C 296.87 152.70 296.87 157.66 296.87 162.63 C 287.04 162.62 277.21 162.62 267.38 162.62 C 267.37 132.98 267.39 103.33 267.36 73.68 C 262.41 73.69 257.45 73.68 252.50 73.69 C 252.51 63.85 252.51 54.02 252.50 44.19 C 257.45 44.19 262.41 44.19 267.37 44.19 C 267.37 49.07 267.37 53.94 267.37 58.82 C 277.09 58.64 286.85 59.19 296.55 58.55 C 297.33 48.85 296.66 39.05 296.88 29.30 C 291.98 29.31 287.08 29.31 282.18 29.31 C 282.18 34.26 282.18 39.22 282.18 44.18 C 277.25 44.19 272.32 44.18 267.40 44.18 C 267.35 34.29 267.39 24.40 267.37 14.51 C 262.42 14.50 257.46 14.50 252.50 14.50 M 415.44 14.50 C 415.43 19.44 415.43 24.37 415.44 29.30 C 420.18 28.95 425.22 30.09 429.77 28.77 C 431.08 24.24 429.95 19.22 430.31 14.50 C 425.35 14.50 420.39 14.50 415.44 14.50 M 385.75 29.31 C 385.75 34.26 385.73 39.21 385.77 44.16 C 380.89 44.20 376.01 44.18 371.13 44.17 C 371.11 49.06 371.11 53.94 371.13 58.83 C 376.01 58.82 380.89 58.82 385.77 58.81 C 385.75 53.94 385.76 49.06 385.74 44.19 C 395.64 44.18 405.54 44.19 415.44 44.19 C 415.44 39.23 415.44 34.27 415.44 29.32 C 405.54 29.30 395.65 29.30 385.75 29.31 M 431.11 30.11 C 429.26 34.39 430.78 39.55 430.32 44.19 C 435.27 44.19 440.23 44.19 445.18 44.18 C 445.19 39.23 445.18 34.27 445.19 29.32 C 440.55 29.78 435.39 28.26 431.11 30.11 M 311.69 44.17 C 311.68 49.06 311.70 53.94 311.66 58.83 C 316.63 58.81 321.60 58.82 326.57 58.82 C 326.56 53.94 326.56 49.06 326.57 44.18 C 321.61 44.18 316.65 44.19 311.69 44.17 M 415.44 44.18 C 415.43 49.05 415.43 53.93 415.44 58.81 C 410.50 58.81 405.57 58.81 400.64 58.81 C 400.61 63.77 400.62 68.72 400.63 73.68 C 390.79 73.69 380.95 73.68 371.11 73.69 C 371.12 78.65 371.11 83.61 371.12 88.57 C 395.81 88.56 420.49 88.56 445.17 88.57 C 445.20 78.65 445.19 68.74 445.18 58.82 C 440.22 58.81 435.26 58.81 430.31 58.81 C 430.32 53.93 430.31 49.06 430.31 44.18 C 425.35 44.18 420.40 44.18 415.44 44.18 M 208.14 58.81 C 208.11 63.77 208.14 68.72 208.07 73.68 C 198.19 73.69 188.32 73.68 178.44 73.69 C 178.67 83.18 177.96 92.87 178.77 102.23 C 182.81 104.83 188.59 102.70 193.32 103.40 C 193.30 108.35 193.31 113.29 193.30 118.24 C 198.22 118.26 203.15 118.25 208.08 118.26 C 208.14 123.12 208.12 127.99 208.11 132.85 C 203.18 132.89 198.25 132.87 193.32 132.88 C 193.30 137.83 193.31 142.79 193.30 147.75 C 198.23 147.76 203.17 147.75 208.11 147.77 C 208.12 162.62 208.12 177.46 208.11 192.31 C 213.02 192.31 217.92 192.31 222.83 192.31 C 222.81 187.35 222.81 182.39 222.84 177.44 C 227.65 177.46 232.47 177.34 237.28 177.58 C 237.27 172.86 238.71 167.51 236.81 163.18 C 232.36 161.86 227.46 162.96 222.83 162.63 C 222.81 147.83 222.80 133.03 222.84 118.23 C 227.76 118.26 232.69 118.26 237.61 118.24 C 237.17 113.60 238.64 108.45 236.86 104.14 C 232.57 102.36 227.44 103.83 222.82 103.38 C 222.80 108.34 222.81 113.30 222.81 118.26 C 217.91 118.23 213.02 118.24 208.12 118.26 C 208.13 113.30 208.12 108.34 208.13 103.37 C 213.02 103.38 217.92 103.38 222.82 103.37 C 222.82 98.44 222.81 93.50 222.82 88.57 C 217.93 88.55 213.03 88.56 208.13 88.57 C 208.12 83.60 208.13 78.63 208.12 73.66 C 213.02 73.71 217.92 73.69 222.82 73.69 C 222.82 68.73 222.83 63.77 222.80 58.81 C 217.91 58.81 213.02 58.81 208.14 58.81 M 282.17 73.69 C 282.18 78.64 282.18 83.60 282.17 88.55 C 287.04 88.37 291.99 89.00 296.80 88.22 C 297.03 83.38 296.79 78.51 296.89 73.66 C 291.98 73.69 287.08 73.69 282.17 73.69 M 371.12 103.37 C 371.11 113.20 371.12 123.04 371.12 132.88 C 375.99 132.89 380.86 132.86 385.74 132.92 C 385.75 137.86 385.75 142.81 385.75 147.75 C 380.87 147.75 375.99 147.75 371.12 147.75 C 371.12 152.71 371.11 157.67 371.12 162.63 C 385.89 162.62 400.65 162.65 415.42 162.62 C 416.63 167.39 412.00 178.12 419.99 177.48 C 423.20 176.87 427.80 178.89 430.11 176.16 C 430.62 166.74 430.16 157.21 430.30 147.74 C 420.41 147.76 410.53 147.73 400.64 147.76 C 400.62 142.80 400.63 137.84 400.62 132.88 C 395.66 132.87 390.70 132.87 385.74 132.88 C 385.77 123.04 385.75 113.20 385.75 103.37 C 380.88 103.37 376.00 103.37 371.12 103.37 M 400.61 103.39 C 400.63 108.34 400.62 113.29 400.63 118.24 C 405.47 118.20 410.33 118.39 415.18 118.19 C 415.79 113.28 415.29 108.30 415.44 103.37 C 410.50 103.37 405.55 103.35 400.61 103.39 M 430.32 103.36 C 430.29 113.20 430.31 123.04 430.30 132.88 C 435.26 132.88 440.23 132.88 445.19 132.88 C 445.18 123.04 445.21 113.20 445.17 103.36 C 440.22 103.37 435.27 103.37 430.32 103.36 M 163.58 107.98 C 163.67 126.19 163.60 144.40 163.62 162.62 C 168.61 162.64 173.61 162.77 178.58 162.28 C 178.35 142.77 178.35 123.24 178.58 103.72 C 173.80 104.35 162.87 99.94 163.58 107.98 M 474.70 132.88 C 474.68 137.84 474.68 142.80 474.70 147.76 C 484.58 147.75 494.47 147.75 504.36 147.76 C 504.02 152.41 505.13 157.33 503.82 161.81 C 499.51 163.68 494.21 162.14 489.50 162.61 C 489.49 172.51 489.50 182.41 489.49 192.30 C 484.56 192.31 479.63 192.31 474.70 192.30 C 474.63 182.50 474.80 172.70 474.63 162.91 C 469.73 162.25 464.76 162.76 459.83 162.63 C 459.81 157.67 459.81 152.71 459.82 147.75 C 454.94 147.75 450.06 147.75 445.18 147.75 C 445.17 157.65 445.20 167.55 445.16 177.45 C 440.43 178.38 433.64 175.24 430.32 179.41 C 430.25 188.64 430.32 197.88 430.32 207.11 C 435.28 207.13 440.23 207.13 445.19 207.12 C 445.17 212.02 445.20 216.92 445.16 221.82 C 440.21 221.80 435.26 221.81 430.31 221.81 C 430.31 216.91 430.32 212.01 430.31 207.12 C 425.35 207.12 420.39 207.11 415.43 207.12 C 415.43 212.02 415.44 216.92 415.42 221.82 C 410.49 221.81 405.56 221.81 400.63 221.81 C 400.62 226.74 400.63 231.67 400.61 236.61 C 405.55 236.65 410.48 236.63 415.42 236.63 C 415.44 241.59 415.43 246.55 415.44 251.52 C 420.39 251.50 425.35 251.50 430.30 251.51 C 430.31 261.40 430.31 271.29 430.30 281.18 C 435.26 281.19 440.22 281.19 445.18 281.19 C 445.18 286.08 445.17 290.98 445.19 295.88 C 440.23 295.87 435.28 295.87 430.32 295.88 C 430.30 300.82 430.31 305.75 430.31 310.69 C 435.17 310.33 440.48 311.46 445.09 310.17 C 445.37 305.42 445.11 300.65 445.20 295.89 C 450.06 295.87 454.93 295.88 459.79 295.88 C 460.12 300.77 459.15 305.91 460.30 310.64 C 465.09 310.84 469.89 310.63 474.69 310.69 C 474.69 305.76 474.68 300.82 474.71 295.89 C 479.64 295.87 484.58 295.88 489.51 295.88 C 489.49 290.98 489.50 286.08 489.51 281.18 C 494.46 281.19 499.41 281.19 504.37 281.19 C 504.38 295.97 504.36 310.76 504.38 325.54 C 494.48 325.58 484.59 325.54 474.70 325.56 C 475.38 330.27 473.21 336.16 475.80 340.16 C 485.22 340.85 494.86 340.23 504.37 340.45 C 504.37 345.38 504.36 350.31 504.38 355.24 C 524.11 355.25 543.84 355.27 563.57 355.23 C 563.55 350.29 563.56 345.36 563.57 340.43 C 558.63 340.43 553.69 340.43 548.76 340.43 C 548.75 330.52 548.76 320.61 548.75 310.71 C 553.69 310.68 558.63 310.69 563.57 310.69 C 563.56 300.86 563.56 291.02 563.57 281.18 C 543.84 281.17 524.11 281.19 504.38 281.17 C 504.37 276.24 504.37 271.31 504.38 266.38 C 499.42 266.36 494.45 266.37 489.49 266.37 C 489.50 271.31 489.50 276.24 489.49 281.18 C 479.60 281.18 469.71 281.19 459.82 281.18 C 459.81 266.33 459.83 251.48 459.82 236.63 C 454.94 236.62 450.06 236.62 445.19 236.63 C 445.19 231.68 445.19 226.74 445.19 221.80 C 450.06 221.83 454.94 221.83 459.81 221.80 C 459.81 226.73 459.81 231.67 459.81 236.61 C 469.71 236.66 479.61 236.62 489.51 236.63 C 489.50 226.79 489.50 216.95 489.51 207.12 C 494.46 207.13 499.41 207.13 504.37 207.12 C 504.37 212.02 504.37 216.92 504.37 221.82 C 514.20 221.82 524.04 221.83 533.88 221.81 C 533.87 226.75 533.87 231.68 533.88 236.62 C 538.83 236.64 543.79 236.63 548.75 236.62 C 548.75 246.54 548.74 256.46 548.75 266.37 C 553.68 266.38 558.61 266.37 563.54 266.39 C 563.59 251.53 563.54 236.68 563.57 221.83 C 553.68 221.78 543.78 221.83 533.89 221.80 C 533.87 216.91 533.88 212.03 533.89 207.15 C 543.78 207.09 553.67 207.15 563.56 207.11 C 563.57 197.22 563.55 187.32 563.57 177.43 C 558.63 177.43 553.70 177.44 548.77 177.42 C 548.73 182.38 548.74 187.34 548.76 192.30 C 543.80 192.31 538.84 192.31 533.89 192.29 C 533.87 182.40 533.89 172.50 533.88 162.61 C 529.00 162.63 524.11 162.62 519.23 162.61 C 519.27 152.70 519.25 142.79 519.24 132.88 C 504.39 132.87 489.55 132.87 474.70 132.88 M 533.88 132.88 C 533.87 137.83 533.87 142.78 533.88 147.74 C 543.77 147.77 553.67 147.75 563.57 147.75 C 563.56 142.80 563.56 137.84 563.56 132.89 C 553.66 132.86 543.77 132.87 533.88 132.88 M 238.19 178.19 C 236.84 182.68 237.98 187.65 237.64 192.32 C 242.59 192.31 247.54 192.32 252.49 192.31 C 252.08 187.65 253.42 182.57 251.82 178.18 C 247.71 176.93 242.26 176.88 238.19 178.19 M 371.12 236.63 C 371.12 241.58 371.12 246.54 371.11 251.50 C 375.99 251.50 380.88 251.52 385.77 251.48 C 385.74 246.53 385.75 241.58 385.77 236.64 C 380.88 236.61 376.00 236.62 371.12 236.63 M 504.37 251.51 C 509.32 251.50 514.28 251.50 519.24 251.51 C 519.24 256.46 519.25 261.41 519.23 266.36 C 524.12 266.39 529.00 266.37 533.89 266.38 C 533.87 256.46 533.88 246.54 533.88 236.63 C 524.05 236.61 514.22 236.64 504.40 236.61 C 504.35 241.58 504.37 246.54 504.37 251.51 M 385.77 266.36 C 385.74 271.30 385.74 276.24 385.76 281.19 C 390.72 281.19 395.68 281.20 400.64 281.17 C 400.62 276.24 400.63 271.30 400.63 266.37 C 395.68 266.37 390.72 266.38 385.77 266.36 M 15.51 281.17 C 15.49 286.08 15.50 290.98 15.50 295.89 C 20.44 295.87 25.38 295.88 30.31 295.89 C 30.32 290.98 30.28 286.07 30.37 281.16 C 25.42 281.19 20.46 281.18 15.51 281.17 M 400.64 310.68 C 400.98 315.35 399.84 320.32 401.19 324.81 C 405.52 326.59 410.75 325.08 415.44 325.56 C 415.44 320.60 415.44 315.64 415.44 310.69 C 410.50 310.68 405.57 310.69 400.64 310.68 M 445.16 310.63 C 445.19 315.61 445.18 320.58 445.17 325.56 C 450.06 325.57 454.94 325.57 459.83 325.55 C 459.81 320.58 459.80 315.60 459.84 310.63 C 454.95 310.72 450.05 310.71 445.16 310.63 M 15.51 325.56 C 15.49 330.52 15.49 335.48 15.51 340.44 C 20.18 339.15 31.08 343.97 30.36 336.02 C 30.08 332.78 30.98 329.28 29.78 326.21 C 25.35 324.65 20.22 325.99 15.51 325.56 M 385.75 325.57 C 385.74 330.53 385.75 335.48 385.75 340.44 C 390.70 340.44 395.66 340.44 400.62 340.44 C 400.13 335.75 401.70 330.47 399.82 326.17 C 395.38 324.73 390.40 325.94 385.75 325.57 M 430.31 325.56 C 430.30 330.52 430.30 335.48 430.32 340.44 C 435.27 340.44 440.23 340.44 445.19 340.44 C 445.19 335.48 445.19 330.52 445.19 325.56 C 440.23 325.56 435.27 325.55 430.31 325.56 M 334.50 342.36 C 331.82 348.37 335.15 354.82 340.45 358.00 C 339.85 359.49 339.29 361.00 338.78 362.52 C 344.74 356.60 354.11 362.63 360.39 357.15 C 366.22 354.13 367.64 346.84 365.29 341.10 C 358.45 343.50 352.75 348.13 346.41 351.50 C 342.24 352.79 342.19 346.39 340.96 343.70 C 348.61 348.60 355.96 340.96 363.24 338.92 C 355.50 330.06 339.80 331.76 334.50 342.36 M 178.44 340.44 C 178.43 345.37 178.43 350.31 178.44 355.25 C 183.39 355.25 188.35 355.25 193.30 355.26 C 193.32 350.32 193.32 345.38 193.31 340.44 C 188.35 340.43 183.40 340.43 178.44 340.44 M 415.44 340.44 C 415.43 345.37 415.43 350.31 415.44 355.25 C 420.39 355.25 425.35 355.25 430.30 355.26 C 430.32 350.32 430.32 345.38 430.31 340.44 C 425.35 340.43 420.39 340.43 415.44 340.44 M 445.18 340.44 C 445.18 345.38 445.18 350.31 445.18 355.25 C 455.01 355.25 464.84 355.25 474.68 355.25 C 473.56 350.47 478.06 339.75 470.01 340.40 C 461.73 340.46 453.45 340.42 445.18 340.44 M 489.50 355.25 C 489.49 360.21 489.49 365.16 489.50 370.12 C 494.46 370.13 499.42 370.12 504.38 370.13 C 504.37 365.17 504.38 360.21 504.38 355.26 C 499.42 355.23 494.46 355.24 489.50 355.25 M 350.94 364.36 C 347.78 364.11 344.56 362.79 341.50 364.33 C 341.47 364.87 341.42 365.94 341.40 366.48 C 350.42 367.54 360.08 365.98 365.72 358.10 C 361.05 360.70 356.42 363.92 350.94 364.36 M 15.50 370.11 C 15.50 374.99 15.49 379.88 15.52 384.77 C 20.45 384.74 25.38 384.75 30.30 384.76 C 30.32 379.88 30.31 375.00 30.31 370.11 C 25.38 370.12 20.44 370.12 15.50 370.11 M 430.30 370.12 C 430.31 375.00 430.31 379.87 430.30 384.75 C 435.25 384.76 440.21 384.74 445.16 384.77 C 445.20 379.89 445.18 375.00 445.19 370.12 C 440.22 370.12 435.26 370.11 430.30 370.12 M 504.39 370.11 C 504.79 374.65 503.42 379.62 505.11 383.88 C 509.32 385.87 514.59 384.25 519.24 384.76 C 519.26 394.65 519.23 404.54 519.25 414.44 C 529.08 414.44 538.92 414.44 548.75 414.44 C 548.75 419.39 548.74 424.34 548.76 429.30 C 538.92 429.32 529.09 429.31 519.26 429.30 C 519.25 424.34 519.25 419.39 519.25 414.44 C 514.29 414.43 509.34 414.43 504.39 414.43 C 504.36 419.39 504.37 424.36 504.37 429.32 C 509.33 429.31 514.29 429.30 519.26 429.33 C 519.23 434.28 519.25 439.23 519.24 444.19 C 529.08 444.19 538.92 444.18 548.76 444.20 C 548.74 449.06 548.74 453.93 548.76 458.80 C 543.79 458.81 538.83 458.80 533.87 458.83 C 533.87 463.78 533.87 468.73 533.87 473.69 C 529.00 473.68 524.13 473.68 519.26 473.70 C 519.23 478.63 519.24 483.56 519.25 488.50 C 529.08 488.50 538.91 488.51 548.75 488.50 C 548.75 493.45 548.74 498.41 548.75 503.37 C 553.68 503.38 558.61 503.37 563.54 503.39 C 563.57 468.79 563.58 434.20 563.54 399.61 C 553.66 399.63 543.78 399.63 533.89 399.61 C 533.88 394.66 533.87 389.71 533.89 384.77 C 543.78 384.74 553.67 384.76 563.57 384.75 C 563.56 379.88 563.56 375.00 563.57 370.12 C 543.84 370.10 524.11 370.13 504.39 370.11 M 133.88 384.76 C 133.87 389.71 133.87 394.66 133.88 399.62 C 138.84 399.63 143.80 399.63 148.75 399.63 C 148.76 394.67 148.75 389.71 148.76 384.75 C 143.80 384.75 138.84 384.74 133.88 384.76 M 489.50 384.76 C 489.49 389.71 489.49 394.67 489.50 399.62 C 494.45 399.63 499.41 399.63 504.37 399.62 C 503.97 394.87 505.22 389.75 503.78 385.23 C 499.19 384.05 494.23 385.07 489.50 384.76 M 15.51 399.63 C 15.50 404.56 15.49 409.50 15.51 414.44 C 20.22 414.01 25.35 415.34 29.78 413.79 C 31.06 409.27 29.97 404.32 30.31 399.63 C 25.38 399.61 20.44 399.62 15.51 399.63 M 104.38 399.63 C 104.37 404.56 104.36 409.49 104.39 414.43 C 109.34 414.45 114.30 414.44 119.25 414.44 C 119.25 409.50 119.25 404.56 119.25 399.63 C 114.29 399.62 109.33 399.62 104.38 399.63 M 31.14 415.14 C 29.23 419.39 30.79 424.64 30.30 429.31 C 25.37 429.30 20.43 429.31 15.49 429.31 C 15.50 434.26 15.51 439.21 15.49 444.17 C 30.27 444.21 45.04 444.18 59.82 444.19 C 59.82 439.22 59.82 434.26 59.82 429.31 C 54.94 429.31 50.06 429.30 45.18 429.30 C 45.19 424.35 45.19 419.40 45.19 414.45 C 40.55 414.85 35.51 413.51 31.14 415.14 M 90.18 415.18 C 88.71 419.62 89.95 424.64 89.57 429.31 C 94.27 428.96 99.26 430.08 103.78 428.78 C 105.21 424.26 103.98 419.17 104.37 414.44 C 99.70 414.90 94.52 413.42 90.18 415.18 M 119.23 414.44 C 119.25 419.39 119.24 424.34 119.26 429.29 C 114.60 429.78 109.40 428.26 105.12 430.13 C 103.38 434.45 104.82 439.55 104.38 444.19 C 114.21 444.19 124.04 444.20 133.86 444.18 C 133.88 449.05 133.87 453.92 133.87 458.80 C 138.84 458.83 143.80 458.82 148.77 458.81 C 148.75 448.97 148.74 439.14 148.77 429.31 C 153.72 429.32 158.67 429.31 163.62 429.31 C 162.47 424.55 167.02 413.80 159.02 414.39 C 145.76 414.48 132.50 414.40 119.23 414.44 M 163.63 444.18 C 163.62 449.06 163.62 453.94 163.63 458.82 C 168.56 458.81 173.50 458.82 178.43 458.82 C 178.44 453.94 178.45 449.05 178.43 444.18 C 173.50 444.18 168.56 444.18 163.63 444.18 M 15.49 458.83 C 15.50 493.41 15.51 527.98 15.49 562.56 C 50.07 562.58 84.65 562.54 119.23 562.57 C 119.27 527.99 119.26 493.40 119.24 458.81 C 84.65 458.82 50.07 458.79 15.49 458.83 M 400.58 492.99 C 400.89 496.21 399.87 499.77 401.22 502.78 C 405.69 504.20 410.73 502.99 415.43 503.38 C 415.45 498.42 415.44 493.47 415.45 488.52 C 410.74 489.74 399.88 485.01 400.58 492.99 M 400.63 518.25 C 400.61 523.12 400.62 528.00 400.63 532.88 C 405.56 532.88 410.50 532.87 415.44 532.89 C 415.44 528.00 415.45 523.12 415.42 518.23 C 410.49 518.25 405.56 518.24 400.63 518.25 M 548.75 518.24 C 548.75 523.11 548.74 528.00 548.75 532.88 C 543.88 532.96 538.99 532.59 534.15 533.15 C 533.59 537.99 533.96 542.88 533.88 547.75 C 519.09 547.76 504.31 547.73 489.52 547.76 C 489.49 542.81 489.51 537.86 489.50 532.91 C 484.56 532.85 479.63 532.87 474.70 532.88 C 474.67 537.83 474.68 542.78 474.70 547.74 C 469.74 547.75 464.79 547.73 459.84 547.77 C 459.80 542.80 459.83 537.84 459.80 532.87 C 454.93 532.87 450.07 532.87 445.20 532.87 C 445.17 537.84 445.17 542.80 445.19 547.77 C 450.06 547.75 454.93 547.76 459.81 547.74 C 459.81 552.68 459.80 557.63 459.83 562.57 C 494.41 562.55 528.99 562.56 563.57 562.57 C 563.56 547.79 563.56 533.02 563.57 518.24 C 558.63 518.24 553.69 518.25 548.75 518.24 M 371.14 532.88 C 371.09 542.77 371.14 552.66 371.11 562.55 C 380.95 562.57 390.79 562.56 400.62 562.56 C 400.63 552.67 400.64 542.77 400.62 532.88 C 390.79 532.87 380.97 532.87 371.14 532.88 Z" />
<path fill="#ffffff" opacity="1.00" d=" M 30.31 29.31 C 54.90 29.36 79.48 29.23 104.06 29.37 C 104.78 53.99 104.17 78.71 104.37 103.37 C 79.68 103.36 54.99 103.40 30.30 103.35 C 30.33 78.67 30.31 53.99 30.31 29.31 M 45.18 44.18 C 45.18 58.98 45.18 73.77 45.18 88.57 C 59.98 88.56 74.77 88.57 89.57 88.57 C 89.57 73.77 89.56 58.98 89.57 44.18 C 74.77 44.18 59.98 44.18 45.18 44.18 Z" />
<path fill="#ffffff" opacity="1.00" d=" M 474.71 29.30 C 499.39 29.32 524.06 29.32 548.74 29.30 C 548.77 53.99 548.73 78.67 548.76 103.36 C 524.07 103.38 499.38 103.38 474.69 103.36 C 474.71 78.67 474.67 53.99 474.71 29.30 M 489.49 44.18 C 489.49 58.98 489.51 73.77 489.48 88.56 C 504.28 88.58 519.08 88.56 533.88 88.57 C 533.88 73.77 533.89 58.97 533.87 44.17 C 519.08 44.19 504.28 44.17 489.49 44.18 Z" />
<path fill="#ffffff" opacity="1.00" d=" M 59.82 162.63 C 74.04 162.66 88.27 162.59 102.49 162.64 C 105.67 163.47 103.99 167.63 104.42 170.00 C 104.00 172.39 105.65 176.48 102.51 177.42 C 88.28 177.48 74.05 177.41 59.82 177.43 C 59.82 172.50 59.82 167.56 59.82 162.63 Z" />
<path fill="#ffffff" opacity="1.00" d=" M 311.69 162.64 C 316.65 162.62 321.60 162.63 326.55 162.63 C 326.56 167.56 326.56 172.49 326.55 177.42 C 321.82 177.01 316.68 178.33 312.22 176.78 C 310.95 172.27 312.04 167.32 311.69 162.64 Z" />
<path fill="#ffffff" opacity="1.00" d=" M 504.34 166.98 C 503.85 159.21 514.57 163.86 519.25 162.64 C 519.24 172.52 519.24 182.41 519.25 192.29 C 514.29 192.31 509.34 192.31 504.38 192.30 C 504.36 183.86 504.41 175.42 504.34 166.98 Z" />
<path fill="#ffffff" opacity="1.00" d=" M 30.33 192.30 C 31.14 187.63 28.51 181.42 31.80 177.76 C 41.03 176.99 50.50 177.66 59.82 177.45 C 59.81 182.41 59.81 187.37 59.82 192.33 C 49.99 192.27 40.16 192.32 30.33 192.30 Z" />
<path fill="#ffffff" opacity="1.00" d=" M 282.18 177.46 C 290.45 177.42 298.73 177.47 307.01 177.40 C 315.07 176.76 310.54 187.52 311.67 192.31 C 306.74 192.31 301.81 192.30 296.88 192.32 C 296.87 197.25 296.88 202.18 296.85 207.11 C 291.97 207.12 287.08 207.13 282.20 207.11 C 282.17 197.22 282.21 187.34 282.18 177.46 Z" />
<path fill="#ffffff" opacity="1.00" d=" M 326.58 177.45 C 331.52 177.43 336.47 177.44 341.42 177.45 C 341.01 182.17 342.33 187.32 340.78 191.78 C 337.71 192.97 334.22 192.07 330.98 192.35 C 323.02 193.07 327.87 182.12 326.58 177.45 Z" />
<path fill="#ffffff" opacity="1.00" d=" M 59.86 192.32 C 74.69 192.31 89.52 192.31 104.35 192.32 C 104.38 197.25 104.37 202.18 104.37 207.12 C 99.43 207.12 94.49 207.12 89.55 207.12 C 89.57 212.02 89.56 216.92 89.55 221.82 C 84.60 221.81 79.65 221.81 74.70 221.82 C 74.69 216.92 74.69 212.02 74.70 207.12 C 69.74 207.11 64.79 207.12 59.84 207.12 C 59.81 202.18 59.80 197.25 59.86 192.32 Z" />
<path fill="#ffffff" opacity="1.00" d=" M 445.19 192.31 C 450.06 192.32 454.93 192.32 459.81 192.31 C 459.81 197.24 459.81 202.18 459.80 207.11 C 454.93 207.12 450.06 207.12 445.20 207.11 C 445.18 202.18 445.19 197.24 445.19 192.31 Z" />
<path fill="#ffffff" opacity="1.00" d=" M 311.69 192.33 C 316.34 192.82 321.60 191.22 325.86 193.15 C 327.48 197.49 326.15 202.50 326.55 207.11 C 321.60 207.12 316.65 207.12 311.71 207.11 C 311.68 202.18 311.69 197.25 311.69 192.33 Z" />
<path fill="#ffffff" opacity="1.00" d=" M 342.14 193.15 C 346.38 191.22 351.62 192.82 356.25 192.32 C 356.24 197.25 356.25 202.18 356.23 207.11 C 351.31 207.12 346.38 207.12 341.45 207.11 C 341.85 202.50 340.52 197.49 342.14 193.15 Z" />
<path fill="#ffffff" opacity="1.00" d=" M 104.38 207.12 C 109.34 207.13 114.30 207.13 119.26 207.12 C 119.24 212.02 119.23 216.91 119.26 221.81 C 114.30 221.81 109.34 221.80 104.38 221.83 C 104.38 216.92 104.37 212.02 104.38 207.12 Z" />
<path fill="#ffffff" opacity="1.00" d=" M 326.57 207.12 C 331.52 207.13 336.48 207.13 341.43 207.12 C 341.43 209.98 341.43 212.83 341.43 215.68 C 336.48 215.69 331.52 215.69 326.57 215.68 C 326.56 212.83 326.56 209.98 326.57 207.12 Z" />
<path fill="#ffffff" opacity="1.00" d=" M 459.81 207.12 C 464.77 207.13 469.73 207.12 474.69 207.13 C 474.68 212.02 474.68 216.92 474.69 221.81 C 469.74 221.81 464.79 221.80 459.84 221.82 C 459.80 216.92 459.83 212.02 459.81 207.12 Z" />
<path fill="#ffffff" opacity="1.00" d=" M 89.57 221.82 C 94.50 221.82 99.43 221.82 104.36 221.81 C 104.02 226.45 105.13 231.35 103.82 235.81 C 99.54 237.70 94.25 236.12 89.57 236.60 C 89.56 231.67 89.57 226.74 89.57 221.82 Z" />
<path fill="#ffffff" opacity="1.00" d=" M 119.23 221.84 C 124.11 221.80 128.99 221.82 133.88 221.82 C 133.88 231.71 133.86 241.60 133.88 251.49 C 124.05 251.50 114.22 251.50 104.39 251.49 C 104.89 246.79 103.29 241.48 105.19 237.18 C 109.66 235.87 114.58 236.96 119.23 236.65 C 119.26 231.71 119.26 226.77 119.23 221.84 Z" />
<path fill="#ffffff" opacity="1.00" d=" M 59.82 236.65 C 69.73 236.61 79.65 236.64 89.56 236.63 C 89.56 241.58 89.57 246.54 89.54 251.50 C 79.64 251.49 69.73 251.50 59.82 251.49 C 59.82 246.54 59.82 241.59 59.82 236.65 Z" />
<path fill="#ffffff" opacity="1.00" d=" M 193.32 236.65 C 201.10 236.61 208.89 236.63 216.68 236.63 C 216.69 241.59 216.69 246.54 216.68 251.49 C 213.82 251.49 210.97 251.50 208.12 251.49 C 208.12 256.44 208.12 261.40 208.11 266.35 C 203.18 266.38 198.25 266.37 193.32 266.36 C 193.31 256.45 193.31 246.55 193.32 236.65 Z" />
<path fill="#ffffff" opacity="1.00" d=" M 45.18 251.51 C 50.06 251.50 54.94 251.50 59.82 251.51 C 59.81 256.46 59.81 261.41 59.81 266.37 C 54.93 266.37 50.06 266.37 45.18 266.36 C 45.19 261.41 45.19 256.46 45.18 251.51 Z" />
<path fill="#ffffff" opacity="1.00" d=" M 148.76 251.51 C 153.71 251.50 158.65 251.51 163.60 251.49 C 163.63 261.39 163.64 271.28 163.60 281.18 C 153.69 281.17 143.79 281.20 133.88 281.17 C 133.88 276.24 133.88 271.31 133.89 266.39 C 138.85 266.37 143.81 266.39 148.77 266.36 C 148.75 261.41 148.75 256.46 148.76 251.51 Z" />
<path fill="#ffffff" opacity="1.00" d=" M 89.56 266.40 C 99.45 266.35 109.33 266.40 119.22 266.37 C 119.25 271.30 119.25 276.24 119.23 281.18 C 109.34 281.18 99.46 281.18 89.57 281.18 C 89.56 276.25 89.57 271.32 89.56 266.40 Z" />
<path fill="#ffffff" opacity="1.00" d=" M 340.29 295.19 C 339.72 291.37 341.84 288.46 344.74 286.29 C 346.44 287.32 348.13 288.37 349.79 289.47 C 354.30 288.69 357.97 291.77 356.61 296.42 C 355.90 297.08 355.19 297.74 354.49 298.41 C 353.49 298.42 352.50 298.44 351.51 298.47 C 350.77 297.77 350.04 297.08 349.31 296.39 C 346.23 296.68 343.10 296.61 340.29 295.19 Z" />
<path fill="#ffffff" opacity="1.00" d=" M 281.44 292.38 C 284.37 291.92 286.67 293.16 286.95 296.28 C 286.01 297.09 285.06 297.91 284.13 298.73 C 281.17 297.83 281.07 295.00 281.44 292.38 Z" />
<path fill="#ffffff" opacity="1.00" d=" M 227.25 296.83 C 228.39 294.96 229.86 293.28 232.23 293.28 C 232.94 294.08 233.66 294.88 234.38 295.68 C 234.40 296.58 234.42 297.49 234.44 298.40 C 233.78 299.10 233.13 299.80 232.48 300.50 C 231.61 300.45 230.75 300.40 229.89 300.36 C 229.01 299.17 228.13 298.00 227.25 296.83 Z" />
<path fill="#ffffff" opacity="1.00" d=" M 249.44 293.61 C 250.99 293.56 252.54 293.51 254.10 293.48 C 254.51 295.83 254.48 298.23 254.00 300.58 C 252.54 300.48 251.08 300.39 249.62 300.28 C 249.48 298.06 249.42 295.84 249.44 293.61 Z" />
<path fill="#ffffff" opacity="1.00" d=" M 104.41 295.88 C 109.35 295.88 114.29 295.87 119.23 295.89 C 119.25 300.81 119.24 305.74 119.24 310.67 C 114.60 310.20 109.40 311.74 105.13 309.87 C 103.39 305.57 104.82 300.49 104.41 295.88 Z" />
<path fill="#ffffff" opacity="1.00" d=" M 74.70 310.70 C 83.14 310.68 91.58 310.73 100.02 310.65 C 107.93 309.94 103.04 320.91 104.37 325.56 C 94.48 325.55 84.59 325.57 74.70 325.55 C 74.69 320.60 74.69 315.65 74.70 310.70 Z" />
<path fill="#ffffff" opacity="1.00" d=" M 148.75 310.71 C 153.70 310.68 158.66 310.69 163.61 310.70 C 163.15 315.35 164.65 320.53 162.84 324.84 C 158.48 326.51 153.40 325.12 148.76 325.55 C 148.75 320.60 148.76 315.65 148.75 310.71 Z" />
<path fill="#ffffff" opacity="1.00" d=" M 519.24 310.70 C 524.12 310.68 529.00 310.69 533.88 310.69 C 533.87 320.61 533.87 330.52 533.88 340.43 C 529.00 340.43 524.12 340.44 519.24 340.42 C 519.26 330.51 519.25 320.61 519.24 310.70 Z" />
<path fill="#ffffff" opacity="1.00" d=" M 59.82 325.58 C 64.77 325.56 69.72 325.56 74.68 325.57 C 74.69 330.52 74.69 335.47 74.68 340.43 C 69.73 340.43 64.77 340.44 59.82 340.42 C 59.82 335.47 59.82 330.53 59.82 325.58 Z" />
<path fill="#ffffff" opacity="1.00" d=" M 104.40 325.57 C 114.22 325.56 124.05 325.57 133.88 325.57 C 133.87 335.46 133.88 345.35 133.88 355.24 C 128.99 355.25 124.11 355.19 119.22 355.32 C 119.27 350.35 119.26 345.39 119.23 340.42 C 114.28 340.44 109.33 340.43 104.38 340.43 C 104.37 335.48 104.37 330.52 104.40 325.57 Z" />
<path fill="#ffffff" opacity="1.00" d=" M 371.12 384.76 C 380.95 384.76 390.78 384.74 400.61 384.76 C 399.85 389.44 402.32 395.47 399.23 399.27 C 390.01 400.11 380.47 399.39 371.12 399.61 C 371.13 394.66 371.13 389.71 371.12 384.76 Z" />
<path fill="#ffffff" opacity="1.00" d=" M 371.13 414.43 C 376.00 414.44 380.87 414.44 385.75 414.44 C 385.75 419.39 385.75 424.35 385.74 429.30 C 390.71 429.32 395.67 429.31 400.63 429.32 C 400.61 434.27 400.62 439.22 400.63 444.17 C 385.83 444.21 371.03 444.16 356.23 444.19 C 356.25 449.06 356.25 453.93 356.23 458.81 C 361.19 458.82 366.16 458.81 371.12 458.83 C 371.10 468.71 371.14 478.59 371.10 488.48 C 361.21 488.51 351.32 488.50 341.44 488.48 C 341.43 493.44 341.44 498.40 341.42 503.37 C 336.72 502.64 330.77 504.91 326.84 502.19 C 326.17 492.78 326.77 483.17 326.57 473.69 C 331.53 473.69 336.49 473.71 341.46 473.66 C 341.42 458.88 341.46 444.10 341.44 429.31 C 351.33 429.31 361.22 429.33 371.12 429.30 C 371.13 424.34 371.12 419.39 371.13 414.43 Z" />
<path fill="#ffffff" opacity="1.00" d=" M 445.18 414.45 C 450.06 414.44 454.94 414.43 459.82 414.46 C 459.80 419.40 459.80 424.35 459.82 429.30 C 454.94 429.30 450.06 429.30 445.18 429.30 C 445.19 424.35 445.19 419.40 445.18 414.45 Z" />
<path fill="#ffffff" opacity="1.00" d=" M 415.45 429.32 C 420.40 429.31 425.35 429.31 430.30 429.32 C 430.31 439.15 430.31 448.99 430.30 458.82 C 425.35 458.80 420.40 458.80 415.45 458.82 C 415.44 448.99 415.44 439.15 415.45 429.32 Z" />
<path fill="#ffffff" opacity="1.00" d=" M 445.19 444.19 C 459.95 444.18 474.72 444.20 489.48 444.18 C 489.51 458.95 489.49 473.72 489.49 488.49 C 474.72 488.49 459.95 488.51 445.18 488.48 C 445.20 473.72 445.18 458.95 445.19 444.19 M 459.82 458.82 C 459.80 463.78 459.81 468.74 459.82 473.70 C 464.78 473.68 469.73 473.69 474.69 473.69 C 474.69 468.73 474.68 463.77 474.70 458.82 C 469.74 458.81 464.78 458.80 459.82 458.82 Z" />
<path fill="#ffffff" opacity="1.00" d=" M 30.30 473.71 C 54.99 473.66 79.67 473.71 104.36 473.69 C 104.38 498.38 104.38 523.07 104.36 547.76 C 79.67 547.73 54.99 547.77 30.30 547.74 C 30.32 523.06 30.32 498.39 30.30 473.71 M 45.19 488.49 C 45.17 503.28 45.19 518.08 45.17 532.87 C 59.97 532.89 74.77 532.88 89.57 532.88 C 89.56 518.08 89.58 503.28 89.56 488.48 C 74.77 488.51 59.98 488.49 45.19 488.49 Z" />
<path fill="#ffffff" opacity="1.00" d=" M 208.12 473.66 C 213.02 473.70 217.93 473.73 222.83 473.64 C 222.78 483.55 222.83 493.46 222.81 503.37 C 217.91 503.37 213.01 503.35 208.11 503.40 C 208.14 493.49 208.13 483.57 208.12 473.66 Z" />
</g>
<g id="#010101ff">
<path fill="#010101" opacity="1.00" d=" M 193.31 14.49 C 203.14 14.50 212.98 14.51 222.82 14.49 C 222.82 19.43 222.81 24.37 222.83 29.31 C 217.93 29.31 213.03 29.32 208.13 29.31 C 208.12 34.26 208.13 39.22 208.13 44.17 C 203.19 44.20 198.25 44.19 193.31 44.19 C 193.32 49.07 193.31 53.95 193.31 58.83 C 188.35 58.81 183.39 58.82 178.43 58.82 C 178.43 53.94 178.44 49.06 178.42 44.18 C 173.49 44.19 168.56 44.19 163.63 44.19 C 163.63 54.02 163.62 63.85 163.64 73.68 C 158.68 73.70 153.71 73.68 148.75 73.71 C 148.76 78.66 148.74 83.61 148.78 88.57 C 153.73 88.55 158.67 88.56 163.62 88.56 C 163.12 93.24 164.72 98.54 162.81 102.82 C 158.34 104.14 153.42 103.04 148.78 103.36 C 148.74 108.32 148.75 113.28 148.76 118.25 C 143.80 118.25 138.84 118.26 133.88 118.24 C 133.87 98.44 133.88 78.63 133.87 58.83 C 138.84 58.80 143.80 58.82 148.76 58.80 C 148.74 53.93 148.75 49.06 148.74 44.19 C 153.69 44.18 158.65 44.18 163.60 44.18 C 163.63 39.23 163.61 34.28 163.63 29.32 C 158.68 29.31 153.72 29.32 148.77 29.31 C 148.75 34.26 148.75 39.21 148.77 44.17 C 143.81 44.20 138.84 44.20 133.87 44.17 C 133.89 34.29 133.85 24.40 133.90 14.52 C 148.75 14.49 163.60 14.49 178.45 14.51 C 178.44 19.45 178.43 24.38 178.46 29.32 C 183.41 29.30 188.36 29.31 193.30 29.30 C 193.31 24.37 193.31 19.43 193.31 14.49 Z" />
<path fill="#010101" opacity="1.00" d=" M 311.68 14.52 C 316.64 14.49 321.60 14.51 326.57 14.50 C 326.56 19.44 326.58 24.38 326.54 29.32 C 321.59 29.31 316.64 29.32 311.69 29.31 C 311.68 24.38 311.69 19.45 311.68 14.52 Z" />
<path fill="#010101" opacity="1.00" d=" M 356.25 14.49 C 361.19 14.50 366.14 14.50 371.09 14.51 C 371.14 19.44 371.13 24.37 371.12 29.30 C 366.16 29.32 361.20 29.32 356.24 29.30 C 356.25 24.37 356.24 19.43 356.25 14.49 Z" />
<path fill="#010101" opacity="1.00" d=" M 459.83 14.49 C 494.40 14.50 528.98 14.51 563.56 14.49 C 563.58 49.07 563.54 83.65 563.58 118.23 C 528.99 118.27 494.40 118.26 459.81 118.24 C 459.82 83.65 459.79 49.07 459.83 14.49 M 474.71 29.30 C 474.67 53.99 474.71 78.67 474.69 103.36 C 499.38 103.38 524.07 103.38 548.76 103.36 C 548.73 78.67 548.77 53.99 548.74 29.30 C 524.06 29.32 499.39 29.32 474.71 29.30 Z" />
<path fill="#010101" opacity="1.00" d=" M 15.51 14.51 C 50.09 14.50 84.67 14.50 119.25 14.51 C 119.25 49.08 119.26 83.66 119.24 118.24 C 84.66 118.26 50.08 118.25 15.51 118.25 C 15.50 83.67 15.50 49.09 15.51 14.51 M 30.31 29.31 C 30.31 53.99 30.33 78.67 30.30 103.35 C 54.99 103.40 79.68 103.36 104.37 103.37 C 104.17 78.71 104.78 53.99 104.06 29.37 C 79.48 29.23 54.90 29.36 30.31 29.31 Z" />
<path fill="#010101" opacity="1.00" d=" M 252.50 14.50 C 257.46 14.50 262.42 14.50 267.37 14.51 C 267.39 24.40 267.35 34.29 267.40 44.18 C 272.32 44.18 277.25 44.19 282.18 44.18 C 282.18 39.22 282.18 34.26 282.18 29.31 C 287.08 29.31 291.98 29.31 296.88 29.30 C 296.66 39.05 297.33 48.85 296.55 58.55 C 286.85 59.19 277.09 58.64 267.37 58.82 C 267.37 53.94 267.37 49.07 267.37 44.19 C 262.41 44.19 257.45 44.19 252.50 44.19 C 252.51 54.02 252.51 63.85 252.50 73.69 C 257.45 73.68 262.41 73.69 267.36 73.68 C 267.39 103.33 267.37 132.98 267.38 162.62 C 277.21 162.62 287.04 162.62 296.87 162.63 C 296.87 157.66 296.87 152.70 296.88 147.73 C 291.98 147.76 287.09 147.75 282.19 147.77 C 282.18 142.80 282.17 137.83 282.20 132.87 C 286.98 132.73 291.81 133.25 296.56 132.56 C 297.26 127.83 296.71 123.02 296.90 118.25 C 301.83 118.24 306.76 118.25 311.69 118.23 C 311.68 113.28 311.69 108.32 311.68 103.37 C 306.83 103.73 301.58 102.65 296.98 103.87 C 296.70 108.66 296.95 113.47 296.89 118.26 C 291.98 118.25 287.08 118.25 282.18 118.25 C 282.18 113.29 282.18 108.33 282.18 103.37 C 287.08 103.38 291.99 103.35 296.89 103.40 C 296.99 98.56 296.61 93.68 297.06 88.86 C 301.88 88.17 306.82 88.74 311.69 88.56 C 311.68 83.61 311.68 78.65 311.69 73.69 C 306.77 73.69 301.85 73.69 296.93 73.69 C 296.94 68.84 296.59 63.96 297.15 59.13 C 301.96 58.47 306.85 58.90 311.69 58.86 C 311.69 63.79 311.70 68.73 311.69 73.67 C 316.64 73.70 321.59 73.69 326.54 73.68 C 326.58 78.63 326.56 83.59 326.57 88.55 C 331.52 88.56 336.47 88.56 341.43 88.55 C 341.44 78.64 341.42 68.74 341.44 58.83 C 346.37 58.80 351.30 58.81 356.23 58.81 C 356.27 78.62 356.25 98.43 356.24 118.24 C 351.30 118.26 346.36 118.26 341.42 118.23 C 341.44 113.28 341.43 108.33 341.43 103.38 C 336.47 103.37 331.52 103.37 326.57 103.38 C 326.56 113.22 326.56 123.05 326.57 132.88 C 316.77 133.06 306.94 132.52 297.16 133.16 C 296.60 137.99 296.95 142.88 296.93 147.74 C 311.76 147.76 326.60 147.74 341.44 147.75 C 341.44 152.71 341.45 157.66 341.43 162.61 C 346.37 162.62 351.31 162.62 356.25 162.63 C 356.26 172.52 356.24 182.41 356.26 192.30 C 361.20 192.31 366.14 192.31 371.08 192.31 C 371.15 197.24 371.11 202.18 371.15 207.11 C 376.01 207.12 380.87 207.14 385.74 207.08 C 385.75 202.16 385.75 197.23 385.74 192.30 C 380.86 192.32 375.99 192.31 371.11 192.34 C 371.12 187.37 371.12 182.41 371.11 177.44 C 384.42 177.40 397.72 177.48 411.02 177.39 C 418.87 176.86 414.22 187.61 415.43 192.31 C 410.49 192.32 405.56 192.31 400.62 192.33 C 400.63 197.26 400.64 202.19 400.61 207.13 C 395.65 207.12 390.69 207.13 385.74 207.12 C 385.76 212.02 385.75 216.91 385.77 221.81 C 380.88 221.82 376.00 221.82 371.12 221.82 C 371.12 226.75 371.13 231.68 371.12 236.62 C 368.20 236.63 365.29 236.63 362.38 236.62 C 362.37 246.54 362.34 256.46 362.39 266.38 C 365.29 266.37 368.20 266.37 371.12 266.38 C 371.13 271.31 371.13 276.24 371.13 281.17 C 368.20 281.18 365.28 281.19 362.36 281.19 C 362.37 286.08 362.36 290.98 362.36 295.87 C 365.28 295.87 368.20 295.87 371.12 295.88 C 371.13 300.81 371.12 305.75 371.12 310.68 C 368.21 310.69 365.31 310.69 362.40 310.68 C 362.36 315.64 362.38 320.61 362.38 325.57 C 365.29 325.56 368.20 325.56 371.11 325.58 C 371.13 330.52 371.12 335.46 371.13 340.41 C 370.28 340.43 368.57 340.47 367.72 340.49 C 361.29 326.92 337.88 327.11 332.11 341.18 C 330.90 343.92 331.35 347.06 331.41 349.98 C 331.33 354.56 336.36 356.93 336.93 361.35 C 333.48 361.47 330.02 361.38 326.57 361.37 C 326.56 364.28 326.57 367.20 326.59 370.11 C 328.83 370.11 331.09 370.11 333.34 370.08 C 334.14 374.23 338.09 373.90 341.44 373.76 C 341.44 377.42 341.44 381.08 341.44 384.75 C 346.37 384.75 351.30 384.74 356.24 384.76 C 356.24 380.36 356.27 375.96 356.21 371.57 C 363.26 371.37 370.38 366.33 371.19 359.04 C 372.98 352.90 370.20 346.72 371.11 340.44 C 375.99 340.43 380.88 340.43 385.77 340.44 C 385.75 345.37 385.75 350.30 385.77 355.23 C 390.72 355.25 395.68 355.24 400.63 355.25 C 400.63 365.08 400.63 374.91 400.63 384.75 C 405.48 384.80 410.33 384.61 415.18 384.81 C 415.78 389.72 415.30 394.70 415.44 399.64 C 410.74 400.00 405.70 398.82 401.22 400.22 C 399.81 404.69 401.01 409.73 400.63 414.42 C 415.48 414.45 430.33 414.43 445.18 414.43 C 445.18 404.53 445.18 394.63 445.19 384.74 C 450.06 384.75 454.93 384.74 459.80 384.76 C 459.81 379.88 459.81 375.00 459.81 370.12 C 469.71 370.12 479.60 370.12 489.50 370.11 C 489.51 374.99 489.50 379.87 489.50 384.75 C 484.56 384.76 479.63 384.75 474.70 384.75 C 474.69 399.60 474.69 414.45 474.70 429.30 C 484.58 429.31 494.47 429.30 504.36 429.31 C 504.40 439.14 504.37 448.97 504.37 458.81 C 509.33 458.81 514.28 458.81 519.24 458.81 C 519.26 463.77 519.24 468.74 519.26 473.70 C 514.31 473.68 509.35 473.70 504.41 473.68 C 504.36 478.62 504.38 483.56 504.38 488.50 C 509.33 488.49 514.29 488.49 519.25 488.50 C 519.25 493.46 519.25 498.41 519.25 503.37 C 514.29 503.38 509.33 503.38 504.38 503.38 C 504.38 508.33 504.36 513.28 504.40 518.24 C 514.22 518.24 524.05 518.24 533.87 518.24 C 533.74 523.01 534.26 527.83 533.56 532.56 C 523.87 533.32 514.09 532.67 504.37 532.88 C 504.37 528.00 504.37 523.13 504.37 518.25 C 499.41 518.25 494.46 518.25 489.50 518.25 C 489.49 513.29 489.49 508.33 489.50 503.38 C 484.56 503.38 479.62 503.36 474.68 503.41 C 474.70 508.35 474.68 513.29 474.70 518.24 C 459.90 518.26 445.10 518.26 430.30 518.24 C 430.31 503.39 430.31 488.54 430.30 473.70 C 425.34 473.69 420.39 473.69 415.43 473.69 C 415.43 468.73 415.43 463.77 415.43 458.82 C 405.54 458.82 395.66 458.82 385.77 458.82 C 385.75 463.77 385.75 468.73 385.77 473.69 C 390.72 473.68 395.67 473.68 400.62 473.69 C 400.14 478.34 401.68 483.55 399.83 487.84 C 395.44 489.39 390.42 488.11 385.78 488.49 C 385.74 493.44 385.76 498.40 385.75 503.36 C 390.40 503.82 395.54 502.37 399.86 504.14 C 401.64 508.45 400.17 513.60 400.61 518.24 C 390.78 518.26 380.95 518.25 371.12 518.25 C 371.12 513.29 371.12 508.34 371.11 503.39 C 366.15 503.37 361.20 503.38 356.25 503.37 C 356.25 518.17 356.26 532.97 356.25 547.76 C 351.31 547.75 346.37 547.76 341.43 547.75 C 341.43 537.91 341.45 528.08 341.42 518.24 C 336.47 518.26 331.52 518.25 326.57 518.25 C 326.56 533.02 326.56 547.79 326.57 562.57 C 321.60 562.56 316.64 562.58 311.67 562.54 C 311.70 547.78 311.67 533.01 311.69 518.25 C 316.64 518.24 321.59 518.24 326.55 518.24 C 326.12 513.59 327.51 508.51 325.84 504.16 C 321.53 502.35 316.35 503.85 311.70 503.39 C 311.69 508.35 311.70 513.31 311.68 518.27 C 296.91 518.23 282.14 518.26 267.37 518.25 C 267.38 523.13 267.38 528.00 267.37 532.88 C 262.42 532.88 257.46 532.86 252.51 532.92 C 252.50 537.86 252.51 542.80 252.50 547.75 C 257.46 547.75 262.42 547.75 267.38 547.75 C 267.36 542.79 267.36 537.83 267.38 532.88 C 272.31 532.87 277.24 532.87 282.17 532.87 C 282.20 537.83 282.18 542.79 282.20 547.76 C 287.09 547.74 291.99 547.75 296.88 547.75 C 296.88 552.69 296.88 557.63 296.88 562.57 C 277.12 562.54 257.37 562.59 237.61 562.54 C 237.63 542.82 237.61 523.10 237.62 503.38 C 232.69 503.38 227.75 503.36 222.82 503.40 C 222.82 508.35 222.81 513.30 222.82 518.25 C 217.92 518.25 213.02 518.25 208.11 518.27 C 208.11 513.30 208.17 508.33 208.04 503.37 C 203.13 503.38 198.23 503.38 193.32 503.36 C 193.31 508.33 193.31 513.29 193.33 518.26 C 198.25 518.23 203.17 518.24 208.09 518.25 C 208.15 523.12 208.12 527.99 208.12 532.86 C 203.18 532.89 198.24 532.88 193.30 532.88 C 193.31 528.00 193.31 523.13 193.30 518.26 C 183.41 518.25 173.52 518.25 163.63 518.25 C 163.62 523.13 163.63 528.00 163.63 532.88 C 168.56 532.87 173.49 532.86 178.42 532.89 C 178.46 542.78 178.44 552.67 178.44 562.56 C 173.50 562.56 168.56 562.56 163.63 562.56 C 163.62 557.63 163.61 552.70 163.63 547.78 C 158.67 547.74 153.71 547.75 148.75 547.76 C 148.77 537.92 148.70 528.08 148.79 518.23 C 153.72 518.25 158.66 518.24 163.60 518.24 C 163.64 513.28 163.62 508.33 163.62 503.38 C 158.67 503.38 153.71 503.36 148.76 503.40 C 148.75 508.35 148.75 513.31 148.76 518.27 C 143.80 518.24 138.84 518.26 133.88 518.24 C 133.87 513.29 133.87 508.33 133.88 503.38 C 138.84 503.36 143.79 503.37 148.75 503.37 C 148.75 493.48 148.75 483.59 148.74 473.70 C 153.69 473.67 158.65 473.69 163.60 473.67 C 163.65 478.61 163.62 483.55 163.63 488.49 C 168.57 488.50 173.50 488.50 178.43 488.49 C 178.44 478.60 178.43 468.71 178.44 458.82 C 183.39 458.81 188.35 458.80 193.31 458.82 C 193.32 463.78 193.31 468.73 193.31 473.69 C 198.23 473.68 203.15 473.68 208.06 473.68 C 208.15 468.72 208.12 463.77 208.12 458.81 C 213.02 458.81 217.92 458.82 222.83 458.79 C 222.89 463.58 222.63 468.37 222.92 473.16 C 227.46 474.47 232.77 473.30 237.60 473.67 C 237.65 478.61 237.62 483.55 237.63 488.49 C 242.59 488.50 247.55 488.49 252.51 488.51 C 252.50 493.46 252.49 498.42 252.52 503.38 C 257.47 503.36 262.42 503.37 267.37 503.37 C 267.37 483.64 267.38 463.91 267.36 444.18 C 257.45 444.20 247.54 444.18 237.63 444.19 C 237.63 449.06 237.63 453.94 237.63 458.82 C 232.70 458.82 227.77 458.81 222.84 458.83 C 222.79 453.94 222.82 449.06 222.79 444.18 C 227.73 444.18 232.66 444.18 237.60 444.18 C 237.64 439.22 237.61 434.26 237.64 429.31 C 247.54 429.31 257.45 429.30 267.36 429.31 C 267.40 414.46 267.33 399.61 267.39 384.75 C 277.22 384.73 287.05 384.77 296.88 384.73 C 296.88 394.63 296.87 404.54 296.89 414.44 C 291.99 414.44 287.09 414.44 282.19 414.44 C 282.19 419.39 282.19 424.35 282.18 429.31 C 292.02 429.31 301.86 429.31 311.69 429.31 C 311.69 434.26 311.69 439.22 311.70 444.18 C 306.76 444.19 301.82 444.18 296.88 444.21 C 296.88 449.08 296.89 453.95 296.87 458.83 C 291.97 458.81 287.08 458.82 282.19 458.82 C 282.19 468.71 282.20 478.60 282.18 488.48 C 287.08 488.50 291.98 488.49 296.89 488.49 C 296.87 483.56 296.87 478.63 296.88 473.70 C 306.77 473.68 316.65 473.66 326.54 473.71 C 326.58 453.95 326.55 434.20 326.55 414.45 C 321.59 414.43 316.64 414.45 311.68 414.42 C 311.69 409.49 311.68 404.56 311.68 399.64 C 316.64 399.61 321.61 399.62 326.57 399.61 C 326.55 394.67 326.55 389.72 326.57 384.78 C 316.68 384.72 306.80 384.78 296.91 384.75 C 296.83 376.95 296.89 369.16 296.87 361.37 C 287.04 361.38 277.21 361.38 267.37 361.37 C 267.38 369.17 267.38 376.96 267.37 384.75 C 262.42 384.76 257.46 384.75 252.51 384.76 C 252.50 389.71 252.50 394.67 252.51 399.63 C 237.71 399.61 222.91 399.67 208.11 399.60 C 208.14 409.51 208.13 419.42 208.12 429.34 C 213.02 429.30 217.93 429.27 222.83 429.36 C 222.80 424.38 222.80 419.40 222.83 414.43 C 227.76 414.44 232.69 414.44 237.62 414.42 C 237.63 419.39 237.63 424.36 237.63 429.33 C 232.87 429.38 228.11 429.15 223.36 429.38 C 222.09 434.02 223.15 439.28 222.83 444.16 C 217.92 444.20 213.02 444.18 208.12 444.19 C 208.12 439.23 208.14 434.27 208.07 429.32 C 198.19 429.31 188.31 429.32 178.44 429.31 C 178.43 424.35 178.43 419.39 178.43 414.44 C 173.73 414.04 168.65 415.31 164.21 413.79 C 162.80 409.32 164.00 404.31 163.63 399.63 C 178.43 399.62 193.23 399.61 208.03 399.63 C 208.17 394.67 208.11 389.71 208.11 384.75 C 222.91 384.75 237.70 384.74 252.49 384.75 C 252.50 379.87 252.49 374.99 252.49 370.11 C 247.54 370.13 242.59 370.13 237.64 370.11 C 237.62 367.20 237.62 364.28 237.62 361.37 C 230.11 361.28 219.40 363.48 216.47 354.13 C 216.76 357.79 219.76 360.22 222.85 361.73 C 222.82 364.52 222.81 367.32 222.78 370.13 C 217.90 370.12 213.02 370.13 208.14 370.12 C 208.09 340.48 208.13 310.85 208.12 281.21 C 203.18 281.18 198.24 281.19 193.30 281.18 C 193.31 276.25 193.30 271.31 193.32 266.38 C 188.36 266.37 183.39 266.38 178.43 266.39 C 178.45 271.32 178.44 276.25 178.44 281.19 C 173.50 281.19 168.57 281.19 163.63 281.19 C 163.62 286.09 163.63 290.98 163.63 295.88 C 168.56 295.87 173.49 295.86 178.42 295.89 C 178.45 300.82 178.44 305.75 178.44 310.69 C 183.39 310.68 188.35 310.68 193.31 310.69 C 193.32 315.64 193.31 320.59 193.32 325.54 C 184.46 325.60 175.60 325.56 166.74 325.54 C 165.40 325.28 163.76 326.02 163.64 327.52 C 163.57 336.76 163.67 346.00 163.63 355.24 C 168.57 355.25 173.50 355.23 178.44 355.25 C 178.44 365.08 178.44 374.92 178.44 384.75 C 173.50 384.76 168.56 384.76 163.63 384.75 C 163.62 379.87 163.62 375.00 163.63 370.13 C 148.83 370.10 134.04 370.18 119.25 370.09 C 118.95 365.19 119.88 360.07 118.76 355.31 C 113.97 355.10 109.17 355.31 104.37 355.26 C 104.38 360.20 104.37 365.16 104.39 370.11 C 109.35 370.12 114.31 370.12 119.27 370.12 C 119.25 375.00 119.25 379.88 119.25 384.76 C 109.49 384.82 99.73 384.61 89.98 384.84 C 88.97 393.09 89.84 401.65 89.61 410.02 C 90.14 417.87 79.39 413.22 74.69 414.43 C 74.69 404.54 74.68 394.66 74.69 384.77 C 69.73 384.75 64.77 384.76 59.81 384.74 C 59.81 379.87 59.80 375.00 59.82 370.14 C 54.95 370.12 50.08 370.12 45.20 370.13 C 45.17 365.16 45.18 360.21 45.18 355.25 C 40.23 355.25 35.27 355.25 30.32 355.25 C 30.81 350.61 29.21 345.37 31.14 341.14 C 35.50 339.51 40.53 340.84 45.16 340.45 C 45.19 335.48 45.19 330.52 45.16 325.55 C 40.53 325.16 35.50 326.49 31.14 324.86 C 29.21 320.61 30.81 315.34 30.32 310.69 C 35.27 310.68 40.22 310.68 45.17 310.69 C 45.18 305.75 45.17 300.81 45.20 295.87 C 55.03 295.87 64.86 295.88 74.69 295.87 C 74.68 286.04 74.70 276.20 74.68 266.37 C 69.72 266.39 64.77 266.36 59.82 266.41 C 59.82 271.33 59.82 276.26 59.82 281.19 C 50.06 280.81 39.88 281.95 30.38 280.63 C 30.17 270.93 30.38 261.20 30.31 251.49 C 35.27 251.50 40.22 251.50 45.18 251.49 C 45.18 236.70 45.18 221.91 45.18 207.13 C 40.22 207.13 35.27 207.12 30.31 207.13 C 30.33 216.95 30.30 226.78 30.33 236.60 C 25.38 236.65 20.44 236.63 15.49 236.63 C 15.50 216.89 15.50 197.16 15.50 177.42 C 20.21 177.03 25.33 178.32 29.78 176.78 C 31.03 167.31 29.95 157.40 30.30 147.76 C 35.26 147.74 40.23 147.74 45.19 147.76 C 45.19 152.72 45.19 157.67 45.19 162.63 C 50.06 162.62 54.94 162.61 59.81 162.63 C 59.82 152.71 59.79 142.79 59.83 132.87 C 64.78 132.87 69.73 132.87 74.68 132.88 C 74.70 137.84 74.69 142.80 74.70 147.76 C 84.59 147.74 94.48 147.75 104.37 147.75 C 104.37 142.79 104.36 137.84 104.38 132.88 C 109.33 132.87 114.29 132.87 119.24 132.88 C 119.27 137.85 119.19 142.82 119.33 147.78 C 114.35 147.73 109.37 147.75 104.39 147.76 C 104.84 152.41 103.37 157.54 105.14 161.86 C 109.46 163.63 114.60 162.16 119.24 162.61 C 119.31 157.80 119.10 152.99 119.30 148.19 C 124.04 147.17 129.04 148.00 133.88 147.75 C 133.88 162.61 133.88 177.47 133.89 192.33 C 129.01 192.31 124.13 192.32 119.25 192.31 C 119.24 187.35 119.25 182.40 119.24 177.45 C 114.60 177.87 109.52 176.49 105.16 178.16 C 103.35 182.47 104.86 187.66 104.38 192.32 C 109.34 192.30 114.30 192.30 119.27 192.32 C 119.24 197.24 119.25 202.16 119.26 207.08 C 124.12 207.14 128.99 207.12 133.85 207.11 C 133.89 202.18 133.84 197.24 133.92 192.31 C 138.86 192.30 143.81 192.31 148.76 192.30 C 148.74 187.34 148.75 182.39 148.75 177.44 C 158.65 177.42 168.54 177.44 178.44 177.43 C 178.89 172.74 177.43 167.53 179.19 163.19 C 183.68 161.84 188.65 162.98 193.32 162.64 C 193.31 172.53 193.32 182.42 193.31 192.31 C 183.42 192.31 173.54 192.33 163.65 192.30 C 163.60 212.03 163.64 231.76 163.63 251.49 C 168.57 251.50 173.50 251.50 178.44 251.48 C 178.43 246.53 178.43 241.57 178.44 236.62 C 183.40 236.62 188.36 236.62 193.32 236.63 C 193.30 231.69 193.31 226.75 193.30 221.82 C 198.24 221.81 203.18 221.82 208.12 221.79 C 208.12 216.90 208.12 212.01 208.12 207.12 C 213.03 207.12 217.94 207.11 222.85 207.14 C 222.83 209.63 222.81 212.12 222.75 214.61 C 219.89 216.68 216.16 219.20 216.82 223.26 C 217.08 222.44 217.62 220.81 217.89 219.99 C 220.38 217.09 224.13 215.46 227.96 215.67 C 246.03 215.72 264.10 215.67 282.17 215.70 C 282.17 212.84 282.18 209.98 282.19 207.12 C 277.25 207.13 272.32 207.13 267.38 207.12 C 267.36 197.23 267.37 187.34 267.38 177.45 C 262.69 177.04 257.64 178.30 253.19 176.81 C 251.57 172.41 252.92 167.30 252.50 162.62 C 247.81 161.80 241.46 164.44 237.85 161.16 C 237.30 146.91 237.78 132.54 237.63 118.25 C 242.59 118.24 247.55 118.26 252.51 118.22 C 252.49 113.27 252.49 108.32 252.50 103.37 C 247.78 102.66 241.78 104.92 237.87 102.18 C 237.29 77.97 237.78 53.59 237.63 29.31 C 242.58 29.30 247.54 29.31 252.49 29.31 C 252.50 24.38 252.49 19.44 252.50 14.50 M 59.82 162.63 C 59.82 167.56 59.82 172.50 59.82 177.43 C 74.05 177.41 88.28 177.48 102.51 177.42 C 105.65 176.48 104.00 172.39 104.42 170.00 C 103.99 167.63 105.67 163.47 102.49 162.64 C 88.27 162.59 74.04 162.66 59.82 162.63 M 311.69 162.64 C 312.04 167.32 310.95 172.27 312.22 176.78 C 316.68 178.33 321.82 177.01 326.55 177.42 C 326.56 172.49 326.56 167.56 326.55 162.63 C 321.60 162.63 316.65 162.62 311.69 162.64 M 30.33 192.30 C 40.16 192.32 49.99 192.27 59.82 192.33 C 59.81 187.37 59.81 182.41 59.82 177.45 C 50.50 177.66 41.03 176.99 31.80 177.76 C 28.51 181.42 31.14 187.63 30.33 192.30 M 282.18 177.46 C 282.21 187.34 282.17 197.22 282.20 207.11 C 287.08 207.13 291.97 207.12 296.85 207.11 C 296.88 202.18 296.87 197.25 296.88 192.32 C 301.81 192.30 306.74 192.31 311.67 192.31 C 310.54 187.52 315.07 176.76 307.01 177.40 C 298.73 177.47 290.45 177.42 282.18 177.46 M 326.58 177.45 C 327.87 182.12 323.02 193.07 330.98 192.35 C 334.22 192.07 337.71 192.97 340.78 191.78 C 342.33 187.32 341.01 182.17 341.42 177.45 C 336.47 177.44 331.52 177.43 326.58 177.45 M 59.86 192.32 C 59.80 197.25 59.81 202.18 59.84 207.12 C 64.79 207.12 69.74 207.11 74.70 207.12 C 74.69 212.02 74.69 216.92 74.70 221.82 C 79.65 221.81 84.60 221.81 89.55 221.82 C 89.56 216.92 89.57 212.02 89.55 207.12 C 94.49 207.12 99.43 207.12 104.37 207.12 C 104.37 202.18 104.38 197.25 104.35 192.32 C 89.52 192.31 74.69 192.31 59.86 192.32 M 311.69 192.33 C 311.69 197.25 311.68 202.18 311.71 207.11 C 316.65 207.12 321.60 207.12 326.55 207.11 C 326.15 202.50 327.48 197.49 325.86 193.15 C 321.60 191.22 316.34 192.82 311.69 192.33 M 342.14 193.15 C 340.52 197.49 341.85 202.50 341.45 207.11 C 346.38 207.12 351.31 207.12 356.23 207.11 C 356.25 202.18 356.24 197.25 356.25 192.32 C 351.62 192.82 346.38 191.22 342.14 193.15 M 104.38 207.12 C 104.37 212.02 104.38 216.92 104.38 221.83 C 109.34 221.80 114.30 221.81 119.26 221.81 C 119.23 216.91 119.24 212.02 119.26 207.12 C 114.30 207.13 109.34 207.13 104.38 207.12 M 326.57 207.12 C 326.56 209.98 326.56 212.83 326.57 215.68 C 331.52 215.69 336.48 215.69 341.43 215.68 C 341.43 212.83 341.43 209.98 341.43 207.12 C 336.48 207.13 331.52 207.13 326.57 207.12 M 89.57 221.82 C 89.57 226.74 89.56 231.67 89.57 236.60 C 94.25 236.12 99.54 237.70 103.82 235.81 C 105.13 231.35 104.02 226.45 104.36 221.81 C 99.43 221.82 94.50 221.82 89.57 221.82 M 119.23 221.84 C 119.26 226.77 119.26 231.71 119.23 236.65 C 114.58 236.96 109.66 235.87 105.19 237.18 C 103.29 241.48 104.89 246.79 104.39 251.49 C 114.22 251.50 124.05 251.50 133.88 251.49 C 133.86 241.60 133.88 231.71 133.88 221.82 C 128.99 221.82 124.11 221.80 119.23 221.84 M 59.82 236.65 C 59.82 241.59 59.82 246.54 59.82 251.49 C 69.73 251.50 79.64 251.49 89.54 251.50 C 89.57 246.54 89.56 241.58 89.56 236.63 C 79.65 236.64 69.73 236.61 59.82 236.65 M 193.32 236.65 C 193.31 246.55 193.31 256.45 193.32 266.36 C 198.25 266.37 203.18 266.38 208.11 266.35 C 208.12 261.40 208.12 256.44 208.12 251.49 C 210.97 251.50 213.82 251.49 216.68 251.49 C 216.69 246.54 216.69 241.59 216.68 236.63 C 208.89 236.63 201.10 236.61 193.32 236.65 M 45.18 251.51 C 45.19 256.46 45.19 261.41 45.18 266.36 C 50.06 266.37 54.93 266.37 59.81 266.37 C 59.81 261.41 59.81 256.46 59.82 251.51 C 54.94 251.50 50.06 251.50 45.18 251.51 M 148.76 251.51 C 148.75 256.46 148.75 261.41 148.77 266.36 C 143.81 266.39 138.85 266.37 133.89 266.39 C 133.88 271.31 133.88 276.24 133.88 281.17 C 143.79 281.20 153.69 281.17 163.60 281.18 C 163.64 271.28 163.63 261.39 163.60 251.49 C 158.65 251.51 153.71 251.50 148.76 251.51 M 89.56 266.40 C 89.57 271.32 89.56 276.25 89.57 281.18 C 99.46 281.18 109.34 281.18 119.23 281.18 C 119.25 276.24 119.25 271.30 119.22 266.37 C 109.33 266.40 99.45 266.35 89.56 266.40 M 340.29 295.19 C 343.10 296.61 346.23 296.68 349.31 296.39 C 350.04 297.08 350.77 297.77 351.51 298.47 C 352.50 298.44 353.49 298.42 354.49 298.41 C 355.19 297.74 355.90 297.08 356.61 296.42 C 357.97 291.77 354.30 288.69 349.79 289.47 C 348.13 288.37 346.44 287.32 344.74 286.29 C 341.84 288.46 339.72 291.37 340.29 295.19 M 281.44 292.38 C 281.07 295.00 281.17 297.83 284.13 298.73 C 285.06 297.91 286.01 297.09 286.95 296.28 C 286.67 293.16 284.37 291.92 281.44 292.38 M 227.25 296.83 C 228.13 298.00 229.01 299.17 229.89 300.36 C 230.75 300.40 231.61 300.45 232.48 300.50 C 233.13 299.80 233.78 299.10 234.44 298.40 C 234.42 297.49 234.40 296.58 234.38 295.68 C 233.66 294.88 232.94 294.08 232.23 293.28 C 229.86 293.28 228.39 294.96 227.25 296.83 M 249.44 293.61 C 249.42 295.84 249.48 298.06 249.62 300.28 C 251.08 300.39 252.54 300.48 254.00 300.58 C 254.48 298.23 254.51 295.83 254.10 293.48 C 252.54 293.51 250.99 293.56 249.44 293.61 M 104.41 295.88 C 104.82 300.49 103.39 305.57 105.13 309.87 C 109.40 311.74 114.60 310.20 119.24 310.67 C 119.24 305.74 119.25 300.81 119.23 295.89 C 114.29 295.87 109.35 295.88 104.41 295.88 M 74.70 310.70 C 74.69 315.65 74.69 320.60 74.70 325.55 C 84.59 325.57 94.48 325.55 104.37 325.56 C 103.04 320.91 107.93 309.94 100.02 310.65 C 91.58 310.73 83.14 310.68 74.70 310.70 M 148.75 310.71 C 148.76 315.65 148.75 320.60 148.76 325.55 C 153.40 325.12 158.48 326.51 162.84 324.84 C 164.65 320.53 163.15 315.35 163.61 310.70 C 158.66 310.69 153.70 310.68 148.75 310.71 M 59.82 325.58 C 59.82 330.53 59.82 335.47 59.82 340.42 C 64.77 340.44 69.73 340.43 74.68 340.43 C 74.69 335.47 74.69 330.52 74.68 325.57 C 69.72 325.56 64.77 325.56 59.82 325.58 M 104.40 325.57 C 104.37 330.52 104.37 335.48 104.38 340.43 C 109.33 340.43 114.28 340.44 119.23 340.42 C 119.26 345.39 119.27 350.35 119.22 355.32 C 124.11 355.19 128.99 355.25 133.88 355.24 C 133.88 345.35 133.87 335.46 133.88 325.57 C 124.05 325.57 114.22 325.56 104.40 325.57 M 371.12 384.76 C 371.13 389.71 371.13 394.66 371.12 399.61 C 380.47 399.39 390.01 400.11 399.23 399.27 C 402.32 395.47 399.85 389.44 400.61 384.76 C 390.78 384.74 380.95 384.76 371.12 384.76 M 371.13 414.43 C 371.12 419.39 371.13 424.34 371.12 429.30 C 361.22 429.33 351.33 429.31 341.44 429.31 C 341.46 444.10 341.42 458.88 341.46 473.66 C 336.49 473.71 331.53 473.69 326.57 473.69 C 326.77 483.17 326.17 492.78 326.84 502.19 C 330.77 504.91 336.72 502.64 341.42 503.37 C 341.44 498.40 341.43 493.44 341.44 488.48 C 351.32 488.50 361.21 488.51 371.10 488.48 C 371.14 478.59 371.10 468.71 371.12 458.83 C 366.16 458.81 361.19 458.82 356.23 458.81 C 356.25 453.93 356.25 449.06 356.23 444.19 C 371.03 444.16 385.83 444.21 400.63 444.17 C 400.62 439.22 400.61 434.27 400.63 429.32 C 395.67 429.31 390.71 429.32 385.74 429.30 C 385.75 424.35 385.75 419.39 385.75 414.44 C 380.87 414.44 376.00 414.44 371.13 414.43 M 445.18 414.45 C 445.19 419.40 445.19 424.35 445.18 429.30 C 450.06 429.30 454.94 429.30 459.82 429.30 C 459.80 424.35 459.80 419.40 459.82 414.46 C 454.94 414.43 450.06 414.44 445.18 414.45 M 415.45 429.32 C 415.44 439.15 415.44 448.99 415.45 458.82 C 420.40 458.80 425.35 458.80 430.30 458.82 C 430.31 448.99 430.31 439.15 430.30 429.32 C 425.35 429.31 420.40 429.31 415.45 429.32 M 445.19 444.19 C 445.18 458.95 445.20 473.72 445.18 488.48 C 459.95 488.51 474.72 488.49 489.49 488.49 C 489.49 473.72 489.51 458.95 489.48 444.18 C 474.72 444.20 459.95 444.18 445.19 444.19 M 208.12 473.66 C 208.13 483.57 208.14 493.49 208.11 503.40 C 213.01 503.35 217.91 503.37 222.81 503.37 C 222.83 493.46 222.78 483.55 222.83 473.64 C 217.93 473.73 213.02 473.70 208.12 473.66 Z" />
<path fill="#010101" opacity="1.00" d=" M 415.44 14.50 C 420.39 14.50 425.35 14.50 430.31 14.50 C 429.95 19.22 431.08 24.24 429.77 28.77 C 425.22 30.09 420.18 28.95 415.44 29.30 C 415.43 24.37 415.43 19.44 415.44 14.50 Z" />
<path fill="#010101" opacity="1.00" d=" M 385.75 29.31 C 395.65 29.30 405.54 29.30 415.44 29.32 C 415.44 34.27 415.44 39.23 415.44 44.19 C 405.54 44.19 395.64 44.18 385.74 44.19 C 385.76 49.06 385.75 53.94 385.77 58.81 C 380.89 58.82 376.01 58.82 371.13 58.83 C 371.11 53.94 371.11 49.06 371.13 44.17 C 376.01 44.18 380.89 44.20 385.77 44.16 C 385.73 39.21 385.75 34.26 385.75 29.31 Z" />
<path fill="#010101" opacity="1.00" d=" M 431.11 30.11 C 435.39 28.26 440.55 29.78 445.19 29.32 C 445.18 34.27 445.19 39.23 445.18 44.18 C 440.23 44.19 435.27 44.19 430.32 44.19 C 430.78 39.55 429.26 34.39 431.11 30.11 Z" />
<path fill="#010101" opacity="1.00" d=" M 45.18 44.18 C 59.98 44.18 74.77 44.18 89.57 44.18 C 89.56 58.98 89.57 73.77 89.57 88.57 C 74.77 88.57 59.98 88.56 45.18 88.57 C 45.18 73.77 45.18 58.98 45.18 44.18 Z" />
<path fill="#010101" opacity="1.00" d=" M 311.69 44.17 C 316.65 44.19 321.61 44.18 326.57 44.18 C 326.56 49.06 326.56 53.94 326.57 58.82 C 321.60 58.82 316.63 58.81 311.66 58.83 C 311.70 53.94 311.68 49.06 311.69 44.17 Z" />
<path fill="#010101" opacity="1.00" d=" M 415.44 44.18 C 420.40 44.18 425.35 44.18 430.31 44.18 C 430.31 49.06 430.32 53.93 430.31 58.81 C 435.26 58.81 440.22 58.81 445.18 58.82 C 445.19 68.74 445.20 78.65 445.17 88.57 C 420.49 88.56 395.81 88.56 371.12 88.57 C 371.11 83.61 371.12 78.65 371.11 73.69 C 380.95 73.68 390.79 73.69 400.63 73.68 C 400.62 68.72 400.61 63.77 400.64 58.81 C 405.57 58.81 410.50 58.81 415.44 58.81 C 415.43 53.93 415.43 49.05 415.44 44.18 Z" />
<path fill="#010101" opacity="1.00" d=" M 489.49 44.18 C 504.28 44.17 519.08 44.19 533.87 44.17 C 533.89 58.97 533.88 73.77 533.88 88.57 C 519.08 88.56 504.28 88.58 489.48 88.56 C 489.51 73.77 489.49 58.98 489.49 44.18 Z" />
<path fill="#010101" opacity="1.00" d=" M 208.14 58.81 C 213.02 58.81 217.91 58.81 222.80 58.81 C 222.83 63.77 222.82 68.73 222.82 73.69 C 217.92 73.69 213.02 73.71 208.12 73.66 C 208.13 78.63 208.12 83.60 208.13 88.57 C 213.03 88.56 217.93 88.55 222.82 88.57 C 222.81 93.50 222.82 98.44 222.82 103.37 C 217.92 103.38 213.02 103.38 208.13 103.37 C 208.12 108.34 208.13 113.30 208.12 118.26 C 213.02 118.24 217.91 118.23 222.81 118.26 C 222.81 113.30 222.80 108.34 222.82 103.38 C 227.44 103.83 232.57 102.36 236.86 104.14 C 238.64 108.45 237.17 113.60 237.61 118.24 C 232.69 118.26 227.76 118.26 222.84 118.23 C 222.80 133.03 222.81 147.83 222.83 162.63 C 227.46 162.96 232.36 161.86 236.81 163.18 C 238.71 167.51 237.27 172.86 237.28 177.58 C 232.47 177.34 227.65 177.46 222.84 177.44 C 222.81 182.39 222.81 187.35 222.83 192.31 C 217.92 192.31 213.02 192.31 208.11 192.31 C 208.12 177.46 208.12 162.62 208.11 147.77 C 203.17 147.75 198.23 147.76 193.30 147.75 C 193.31 142.79 193.30 137.83 193.32 132.88 C 198.25 132.87 203.18 132.89 208.11 132.85 C 208.12 127.99 208.14 123.12 208.08 118.26 C 203.15 118.25 198.22 118.26 193.30 118.24 C 193.31 113.29 193.30 108.35 193.32 103.40 C 188.59 102.70 182.81 104.83 178.77 102.23 C 177.96 92.87 178.67 83.18 178.44 73.69 C 188.32 73.68 198.19 73.69 208.07 73.68 C 208.14 68.72 208.11 63.77 208.14 58.81 Z" />
<path fill="#010101" opacity="1.00" d=" M 282.17 73.69 C 287.08 73.69 291.98 73.69 296.89 73.66 C 296.79 78.51 297.03 83.38 296.80 88.22 C 291.99 89.00 287.04 88.37 282.17 88.55 C 282.18 83.60 282.18 78.64 282.17 73.69 Z" />
<path fill="#010101" opacity="1.00" d=" M 371.12 103.37 C 376.00 103.37 380.88 103.37 385.75 103.37 C 385.75 113.20 385.77 123.04 385.74 132.88 C 390.70 132.87 395.66 132.87 400.62 132.88 C 400.63 137.84 400.62 142.80 400.64 147.76 C 410.53 147.73 420.41 147.76 430.30 147.74 C 430.16 157.21 430.62 166.74 430.11 176.16 C 427.80 178.89 423.20 176.87 419.99 177.48 C 412.00 178.12 416.63 167.39 415.42 162.62 C 400.65 162.65 385.89 162.62 371.12 162.63 C 371.11 157.67 371.12 152.71 371.12 147.75 C 375.99 147.75 380.87 147.75 385.75 147.75 C 385.75 142.81 385.75 137.86 385.74 132.92 C 380.86 132.86 375.99 132.89 371.12 132.88 C 371.12 123.04 371.11 113.20 371.12 103.37 Z" />
<path fill="#010101" opacity="1.00" d=" M 400.61 103.39 C 405.55 103.35 410.50 103.37 415.44 103.37 C 415.29 108.30 415.79 113.28 415.18 118.19 C 410.33 118.39 405.47 118.20 400.63 118.24 C 400.62 113.29 400.63 108.34 400.61 103.39 Z" />
<path fill="#010101" opacity="1.00" d=" M 430.32 103.36 C 435.27 103.37 440.22 103.37 445.17 103.36 C 445.21 113.20 445.18 123.04 445.19 132.88 C 440.23 132.88 435.26 132.88 430.30 132.88 C 430.31 123.04 430.29 113.20 430.32 103.36 Z" />
<path fill="#010101" opacity="1.00" d=" M 163.58 107.98 C 162.87 99.94 173.80 104.35 178.58 103.72 C 178.35 123.24 178.35 142.77 178.58 162.28 C 173.61 162.77 168.61 162.64 163.62 162.62 C 163.60 144.40 163.67 126.19 163.58 107.98 Z" />
<path fill="#010101" opacity="1.00" d=" M 474.70 132.88 C 489.55 132.87 504.39 132.87 519.24 132.88 C 519.25 142.79 519.27 152.70 519.23 162.61 C 524.11 162.62 529.00 162.63 533.88 162.61 C 533.89 172.50 533.87 182.40 533.89 192.29 C 538.84 192.31 543.80 192.31 548.76 192.30 C 548.74 187.34 548.73 182.38 548.77 177.42 C 553.70 177.44 558.63 177.43 563.57 177.43 C 563.55 187.32 563.57 197.22 563.56 207.11 C 553.67 207.15 543.78 207.09 533.89 207.15 C 533.88 212.03 533.87 216.91 533.89 221.80 C 543.78 221.83 553.68 221.78 563.57 221.83 C 563.54 236.68 563.59 251.53 563.54 266.39 C 558.61 266.37 553.68 266.38 548.75 266.37 C 548.74 256.46 548.75 246.54 548.75 236.62 C 543.79 236.63 538.83 236.64 533.88 236.62 C 533.87 231.68 533.87 226.75 533.88 221.81 C 524.04 221.83 514.20 221.82 504.37 221.82 C 504.37 216.92 504.37 212.02 504.37 207.12 C 499.41 207.13 494.46 207.13 489.51 207.12 C 489.50 216.95 489.50 226.79 489.51 236.63 C 479.61 236.62 469.71 236.66 459.81 236.61 C 459.81 231.67 459.81 226.73 459.81 221.80 C 454.94 221.83 450.06 221.83 445.19 221.80 C 445.19 226.74 445.19 231.68 445.19 236.63 C 450.06 236.62 454.94 236.62 459.82 236.63 C 459.83 251.48 459.81 266.33 459.82 281.18 C 469.71 281.19 479.60 281.18 489.49 281.18 C 489.50 276.24 489.50 271.31 489.49 266.37 C 494.45 266.37 499.42 266.36 504.38 266.38 C 504.37 271.31 504.37 276.24 504.38 281.17 C 524.11 281.19 543.84 281.17 563.57 281.18 C 563.56 291.02 563.56 300.86 563.57 310.69 C 558.63 310.69 553.69 310.68 548.75 310.71 C 548.76 320.61 548.75 330.52 548.76 340.43 C 553.69 340.43 558.63 340.43 563.57 340.43 C 563.56 345.36 563.55 350.29 563.57 355.23 C 543.84 355.27 524.11 355.25 504.38 355.24 C 504.36 350.31 504.37 345.38 504.37 340.45 C 494.86 340.23 485.22 340.85 475.80 340.16 C 473.21 336.16 475.38 330.27 474.70 325.56 C 484.59 325.54 494.48 325.58 504.38 325.54 C 504.36 310.76 504.38 295.97 504.37 281.19 C 499.41 281.19 494.46 281.19 489.51 281.18 C 489.50 286.08 489.49 290.98 489.51 295.88 C 484.58 295.88 479.64 295.87 474.71 295.89 C 474.68 300.82 474.69 305.76 474.69 310.69 C 469.89 310.63 465.09 310.84 460.30 310.64 C 459.15 305.91 460.12 300.77 459.79 295.88 C 454.93 295.88 450.06 295.87 445.20 295.89 C 445.11 300.65 445.37 305.42 445.09 310.17 C 440.48 311.46 435.17 310.33 430.31 310.69 C 430.31 305.75 430.30 300.82 430.32 295.88 C 435.28 295.87 440.23 295.87 445.19 295.88 C 445.17 290.98 445.18 286.08 445.18 281.19 C 440.22 281.19 435.26 281.19 430.30 281.18 C 430.31 271.29 430.31 261.40 430.30 251.51 C 425.35 251.50 420.39 251.50 415.44 251.52 C 415.43 246.55 415.44 241.59 415.42 236.63 C 410.48 236.63 405.55 236.65 400.61 236.61 C 400.63 231.67 400.62 226.74 400.63 221.81 C 405.56 221.81 410.49 221.81 415.42 221.82 C 415.44 216.92 415.43 212.02 415.43 207.12 C 420.39 207.11 425.35 207.12 430.31 207.12 C 430.32 212.01 430.31 216.91 430.31 221.81 C 435.26 221.81 440.21 221.80 445.16 221.82 C 445.20 216.92 445.17 212.02 445.19 207.12 C 440.23 207.13 435.28 207.13 430.32 207.11 C 430.32 197.88 430.25 188.64 430.32 179.41 C 433.64 175.24 440.43 178.38 445.16 177.45 C 445.20 167.55 445.17 157.65 445.18 147.75 C 450.06 147.75 454.94 147.75 459.82 147.75 C 459.81 152.71 459.81 157.67 459.83 162.63 C 464.76 162.76 469.73 162.25 474.63 162.91 C 474.80 172.70 474.63 182.50 474.70 192.30 C 479.63 192.31 484.56 192.31 489.49 192.30 C 489.50 182.41 489.49 172.51 489.50 162.61 C 494.21 162.14 499.51 163.68 503.82 161.81 C 505.13 157.33 504.02 152.41 504.36 147.76 C 494.47 147.75 484.58 147.75 474.70 147.76 C 474.68 142.80 474.68 137.84 474.70 132.88 M 504.34 166.98 C 504.41 175.42 504.36 183.86 504.38 192.30 C 509.34 192.31 514.29 192.31 519.25 192.29 C 519.24 182.41 519.24 172.52 519.25 162.64 C 514.57 163.86 503.85 159.21 504.34 166.98 M 445.19 192.31 C 445.19 197.24 445.18 202.18 445.20 207.11 C 450.06 207.12 454.93 207.12 459.80 207.11 C 459.81 202.18 459.81 197.24 459.81 192.31 C 454.93 192.32 450.06 192.32 445.19 192.31 M 459.81 207.12 C 459.83 212.02 459.80 216.92 459.84 221.82 C 464.79 221.80 469.74 221.81 474.69 221.81 C 474.68 216.92 474.68 212.02 474.69 207.13 C 469.73 207.12 464.77 207.13 459.81 207.12 M 519.24 310.70 C 519.25 320.61 519.26 330.51 519.24 340.42 C 524.12 340.44 529.00 340.43 533.88 340.43 C 533.87 330.52 533.87 320.61 533.88 310.69 C 529.00 310.69 524.12 310.68 519.24 310.70 Z" />
<path fill="#010101" opacity="1.00" d=" M 533.88 132.88 C 543.77 132.87 553.66 132.86 563.56 132.89 C 563.56 137.84 563.56 142.80 563.57 147.75 C 553.67 147.75 543.77 147.77 533.88 147.74 C 533.87 142.78 533.87 137.83 533.88 132.88 Z" />
<path fill="#010101" opacity="1.00" d=" M 238.19 178.19 C 242.26 176.88 247.71 176.93 251.82 178.18 C 253.42 182.57 252.08 187.65 252.49 192.31 C 247.54 192.32 242.59 192.31 237.64 192.32 C 237.98 187.65 236.84 182.68 238.19 178.19 Z" />
<path fill="#010101" opacity="1.00" d=" M 371.12 236.63 C 376.00 236.62 380.88 236.61 385.77 236.64 C 385.75 241.58 385.74 246.53 385.77 251.48 C 380.88 251.52 375.99 251.50 371.11 251.50 C 371.12 246.54 371.12 241.58 371.12 236.63 Z" />
<path fill="#010101" opacity="1.00" d=" M 504.37 251.51 C 504.37 246.54 504.35 241.58 504.40 236.61 C 514.22 236.64 524.05 236.61 533.88 236.63 C 533.88 246.54 533.87 256.46 533.89 266.38 C 529.00 266.37 524.12 266.39 519.23 266.36 C 519.25 261.41 519.24 256.46 519.24 251.51 C 514.28 251.50 509.32 251.50 504.37 251.51 Z" />
<path fill="#010101" opacity="1.00" d=" M 385.77 266.36 C 390.72 266.38 395.68 266.37 400.63 266.37 C 400.63 271.30 400.62 276.24 400.64 281.17 C 395.68 281.20 390.72 281.19 385.76 281.19 C 385.74 276.24 385.74 271.30 385.77 266.36 Z" />
<path fill="#010101" opacity="1.00" d=" M 15.51 281.17 C 20.46 281.18 25.42 281.19 30.37 281.16 C 30.28 286.07 30.32 290.98 30.31 295.89 C 25.38 295.88 20.44 295.87 15.50 295.89 C 15.50 290.98 15.49 286.08 15.51 281.17 Z" />
<path fill="#010101" opacity="1.00" d=" M 400.64 310.68 C 405.57 310.69 410.50 310.68 415.44 310.69 C 415.44 315.64 415.44 320.60 415.44 325.56 C 410.75 325.08 405.52 326.59 401.19 324.81 C 399.84 320.32 400.98 315.35 400.64 310.68 Z" />
<path fill="#010101" opacity="1.00" d=" M 445.16 310.63 C 450.05 310.71 454.95 310.72 459.84 310.63 C 459.80 315.60 459.81 320.58 459.83 325.55 C 454.94 325.57 450.06 325.57 445.17 325.56 C 445.18 320.58 445.19 315.61 445.16 310.63 Z" />
<path fill="#010101" opacity="1.00" d=" M 15.51 325.56 C 20.22 325.99 25.35 324.65 29.78 326.21 C 30.98 329.28 30.08 332.78 30.36 336.02 C 31.08 343.97 20.18 339.15 15.51 340.44 C 15.49 335.48 15.49 330.52 15.51 325.56 Z" />
<path fill="#010101" opacity="1.00" d=" M 385.75 325.57 C 390.40 325.94 395.38 324.73 399.82 326.17 C 401.70 330.47 400.13 335.75 400.62 340.44 C 395.66 340.44 390.70 340.44 385.75 340.44 C 385.75 335.48 385.74 330.53 385.75 325.57 Z" />
<path fill="#010101" opacity="1.00" d=" M 430.31 325.56 C 435.27 325.55 440.23 325.56 445.19 325.56 C 445.19 330.52 445.19 335.48 445.19 340.44 C 440.23 340.44 435.27 340.44 430.32 340.44 C 430.30 335.48 430.30 330.52 430.31 325.56 Z" />
<path fill="#010101" opacity="1.00" d=" M 334.50 342.36 C 339.80 331.76 355.50 330.06 363.24 338.92 C 355.96 340.96 348.61 348.60 340.96 343.70 C 342.19 346.39 342.24 352.79 346.41 351.50 C 352.75 348.13 358.45 343.50 365.29 341.10 C 367.64 346.84 366.22 354.13 360.39 357.15 C 354.11 362.63 344.74 356.60 338.78 362.52 C 339.29 361.00 339.85 359.49 340.45 358.00 C 335.15 354.82 331.82 348.37 334.50 342.36 Z" />
<path fill="#010101" opacity="1.00" d=" M 178.44 340.44 C 183.40 340.43 188.35 340.43 193.31 340.44 C 193.32 345.38 193.32 350.32 193.30 355.26 C 188.35 355.25 183.39 355.25 178.44 355.25 C 178.43 350.31 178.43 345.37 178.44 340.44 Z" />
<path fill="#010101" opacity="1.00" d=" M 415.44 340.44 C 420.39 340.43 425.35 340.43 430.31 340.44 C 430.32 345.38 430.32 350.32 430.30 355.26 C 425.35 355.25 420.39 355.25 415.44 355.25 C 415.43 350.31 415.43 345.37 415.44 340.44 Z" />
<path fill="#010101" opacity="1.00" d=" M 445.18 340.44 C 453.45 340.42 461.73 340.46 470.01 340.40 C 478.06 339.75 473.56 350.47 474.68 355.25 C 464.84 355.25 455.01 355.25 445.18 355.25 C 445.18 350.31 445.18 345.38 445.18 340.44 Z" />
<path fill="#010101" opacity="1.00" d=" M 489.50 355.25 C 494.46 355.24 499.42 355.23 504.38 355.26 C 504.38 360.21 504.37 365.17 504.38 370.13 C 499.42 370.12 494.46 370.13 489.50 370.12 C 489.49 365.16 489.49 360.21 489.50 355.25 Z" />
<path fill="#010101" opacity="1.00" d=" M 350.94 364.36 C 356.42 363.92 361.05 360.70 365.72 358.10 C 360.08 365.98 350.42 367.54 341.40 366.48 C 341.42 365.94 341.47 364.87 341.50 364.33 C 344.56 362.79 347.78 364.11 350.94 364.36 Z" />
<path fill="#010101" opacity="1.00" d=" M 15.50 370.11 C 20.44 370.12 25.38 370.12 30.31 370.11 C 30.31 375.00 30.32 379.88 30.30 384.76 C 25.38 384.75 20.45 384.74 15.52 384.77 C 15.49 379.88 15.50 374.99 15.50 370.11 Z" />
<path fill="#010101" opacity="1.00" d=" M 430.30 370.12 C 435.26 370.11 440.22 370.12 445.19 370.12 C 445.18 375.00 445.20 379.89 445.16 384.77 C 440.21 384.74 435.25 384.76 430.30 384.75 C 430.31 379.87 430.31 375.00 430.30 370.12 Z" />
<path fill="#010101" opacity="1.00" d=" M 504.39 370.11 C 524.11 370.13 543.84 370.10 563.57 370.12 C 563.56 375.00 563.56 379.88 563.57 384.75 C 553.67 384.76 543.78 384.74 533.89 384.77 C 533.87 389.71 533.88 394.66 533.89 399.61 C 543.78 399.63 553.66 399.63 563.54 399.61 C 563.58 434.20 563.57 468.79 563.54 503.39 C 558.61 503.37 553.68 503.38 548.75 503.37 C 548.74 498.41 548.75 493.45 548.75 488.50 C 538.91 488.51 529.08 488.50 519.25 488.50 C 519.24 483.56 519.23 478.63 519.26 473.70 C 524.13 473.68 529.00 473.68 533.87 473.69 C 533.87 468.73 533.87 463.78 533.87 458.83 C 538.83 458.80 543.79 458.81 548.76 458.80 C 548.74 453.93 548.74 449.06 548.76 444.20 C 538.92 444.18 529.08 444.19 519.24 444.19 C 519.25 439.23 519.23 434.28 519.26 429.33 C 514.29 429.30 509.33 429.31 504.37 429.32 C 504.37 424.36 504.36 419.39 504.39 414.43 C 509.34 414.43 514.29 414.43 519.25 414.44 C 519.25 419.39 519.25 424.34 519.26 429.30 C 529.09 429.31 538.92 429.32 548.76 429.30 C 548.74 424.34 548.75 419.39 548.75 414.44 C 538.92 414.44 529.08 414.44 519.25 414.44 C 519.23 404.54 519.26 394.65 519.24 384.76 C 514.59 384.25 509.32 385.87 505.11 383.88 C 503.42 379.62 504.79 374.65 504.39 370.11 Z" />
<path fill="#010101" opacity="1.00" d=" M 133.88 384.76 C 138.84 384.74 143.80 384.75 148.76 384.75 C 148.75 389.71 148.76 394.67 148.75 399.63 C 143.80 399.63 138.84 399.63 133.88 399.62 C 133.87 394.66 133.87 389.71 133.88 384.76 Z" />
<path fill="#010101" opacity="1.00" d=" M 489.50 384.76 C 494.23 385.07 499.19 384.05 503.78 385.23 C 505.22 389.75 503.97 394.87 504.37 399.62 C 499.41 399.63 494.45 399.63 489.50 399.62 C 489.49 394.67 489.49 389.71 489.50 384.76 Z" />
<path fill="#010101" opacity="1.00" d=" M 15.51 399.63 C 20.44 399.62 25.38 399.61 30.31 399.63 C 29.97 404.32 31.06 409.27 29.78 413.79 C 25.35 415.34 20.22 414.01 15.51 414.44 C 15.49 409.50 15.50 404.56 15.51 399.63 Z" />
<path fill="#010101" opacity="1.00" d=" M 104.38 399.63 C 109.33 399.62 114.29 399.62 119.25 399.63 C 119.25 404.56 119.25 409.50 119.25 414.44 C 114.30 414.44 109.34 414.45 104.39 414.43 C 104.36 409.49 104.37 404.56 104.38 399.63 Z" />
<path fill="#010101" opacity="1.00" d=" M 31.14 415.14 C 35.51 413.51 40.55 414.85 45.19 414.45 C 45.19 419.40 45.19 424.35 45.18 429.30 C 50.06 429.30 54.94 429.31 59.82 429.31 C 59.82 434.26 59.82 439.22 59.82 444.19 C 45.04 444.18 30.27 444.21 15.49 444.17 C 15.51 439.21 15.50 434.26 15.49 429.31 C 20.43 429.31 25.37 429.30 30.30 429.31 C 30.79 424.64 29.23 419.39 31.14 415.14 Z" />
<path fill="#010101" opacity="1.00" d=" M 90.18 415.18 C 94.52 413.42 99.70 414.90 104.37 414.44 C 103.98 419.17 105.21 424.26 103.78 428.78 C 99.26 430.08 94.27 428.96 89.57 429.31 C 89.95 424.64 88.71 419.62 90.18 415.18 Z" />
<path fill="#010101" opacity="1.00" d=" M 119.23 414.44 C 132.50 414.40 145.76 414.48 159.02 414.39 C 167.02 413.80 162.47 424.55 163.62 429.31 C 158.67 429.31 153.72 429.32 148.77 429.31 C 148.74 439.14 148.75 448.97 148.77 458.81 C 143.80 458.82 138.84 458.83 133.87 458.80 C 133.87 453.92 133.88 449.05 133.86 444.18 C 124.04 444.20 114.21 444.19 104.38 444.19 C 104.82 439.55 103.38 434.45 105.12 430.13 C 109.40 428.26 114.60 429.78 119.26 429.29 C 119.24 424.34 119.25 419.39 119.23 414.44 Z" />
<path fill="#010101" opacity="1.00" d=" M 163.63 444.18 C 168.56 444.18 173.50 444.18 178.43 444.18 C 178.45 449.05 178.44 453.94 178.43 458.82 C 173.50 458.82 168.56 458.81 163.63 458.82 C 163.62 453.94 163.62 449.06 163.63 444.18 Z" />
<path fill="#010101" opacity="1.00" d=" M 15.49 458.83 C 50.07 458.79 84.65 458.82 119.24 458.81 C 119.26 493.40 119.27 527.99 119.23 562.57 C 84.65 562.54 50.07 562.58 15.49 562.56 C 15.51 527.98 15.50 493.41 15.49 458.83 M 30.30 473.71 C 30.32 498.39 30.32 523.06 30.30 547.74 C 54.99 547.77 79.67 547.73 104.36 547.76 C 104.38 523.07 104.38 498.38 104.36 473.69 C 79.67 473.71 54.99 473.66 30.30 473.71 Z" />
<path fill="#010101" opacity="1.00" d=" M 459.82 458.82 C 464.78 458.80 469.74 458.81 474.70 458.82 C 474.68 463.77 474.69 468.73 474.69 473.69 C 469.73 473.69 464.78 473.68 459.82 473.70 C 459.81 468.74 459.80 463.78 459.82 458.82 Z" />
<path fill="#010101" opacity="1.00" d=" M 45.19 488.49 C 59.98 488.49 74.77 488.51 89.56 488.48 C 89.58 503.28 89.56 518.08 89.57 532.88 C 74.77 532.88 59.97 532.89 45.17 532.87 C 45.19 518.08 45.17 503.28 45.19 488.49 Z" />
<path fill="#010101" opacity="1.00" d=" M 400.58 492.99 C 399.88 485.01 410.74 489.74 415.45 488.52 C 415.44 493.47 415.45 498.42 415.43 503.38 C 410.73 502.99 405.69 504.20 401.22 502.78 C 399.87 499.77 400.89 496.21 400.58 492.99 Z" />
<path fill="#010101" opacity="1.00" d=" M 400.63 518.25 C 405.56 518.24 410.49 518.25 415.42 518.23 C 415.45 523.12 415.44 528.00 415.44 532.89 C 410.50 532.87 405.56 532.88 400.63 532.88 C 400.62 528.00 400.61 523.12 400.63 518.25 Z" />
<path fill="#010101" opacity="1.00" d=" M 548.75 518.24 C 553.69 518.25 558.63 518.24 563.57 518.24 C 563.56 533.02 563.56 547.79 563.57 562.57 C 528.99 562.56 494.41 562.55 459.83 562.57 C 459.80 557.63 459.81 552.68 459.81 547.74 C 454.93 547.76 450.06 547.75 445.19 547.77 C 445.17 542.80 445.17 537.84 445.20 532.87 C 450.07 532.87 454.93 532.87 459.80 532.87 C 459.83 537.84 459.80 542.80 459.84 547.77 C 464.79 547.73 469.74 547.75 474.70 547.74 C 474.68 542.78 474.67 537.83 474.70 532.88 C 479.63 532.87 484.56 532.85 489.50 532.91 C 489.51 537.86 489.49 542.81 489.52 547.76 C 504.31 547.73 519.09 547.76 533.88 547.75 C 533.96 542.88 533.59 537.99 534.15 533.15 C 538.99 532.59 543.88 532.96 548.75 532.88 C 548.74 528.00 548.75 523.11 548.75 518.24 Z" />
<path fill="#010101" opacity="1.00" d=" M 371.14 532.88 C 380.97 532.87 390.79 532.87 400.62 532.88 C 400.64 542.77 400.63 552.67 400.62 562.56 C 390.79 562.56 380.95 562.57 371.11 562.55 C 371.14 552.66 371.09 542.77 371.14 532.88 Z" />
</g>
</svg>
